<?xml version="1.0" encoding="UTF-8"?><svg id="Layer_2" xmlns="http://www.w3.org/2000/svg" viewBox="0 0 123.5 98.43"><defs><style>.cls-1{fill:#f9b189;}.cls-2{fill:#fccbaa;}.cls-3{fill:#f19988;}.cls-4{fill:#e6453b;}.cls-5{fill:#c6e189;}.cls-6{fill:#a83827;}.cls-7{stroke:#1a1313;}.cls-7,.cls-8{fill:#8ab43a;}.cls-7,.cls-9,.cls-10,.cls-11{stroke-linecap:round;stroke-linejoin:round;stroke-width:.32px;}.cls-12{fill:#1f1c12;}.cls-13,.cls-10{fill:#f89c71;}.cls-14{fill:#66adc5;}.cls-15{fill:#201012;}.cls-9{stroke:#181312;}.cls-9,.cls-11{fill:none;}.cls-10{stroke:#1c1014;}.cls-16{fill:#83b98d;}.cls-17{fill:#1a1614;}.cls-18{fill:#d4ebb4;}.cls-11{stroke:#191312;}.cls-19{fill:#acd060;}.cls-20{fill:#fe877d;}.cls-21{fill:#1c1913;}.cls-22{fill:#f8efe3;}.cls-23{fill:#a9def3;}</style></defs><g id="Layer_1-2"><g id="Generative_Object"><path class="cls-13" d="M112.82,8.88c.06-.02.38-.59.98-.48-.03-.05-.06-.11-.1-.16.03.05.06.11.1.16.03.05.04.11.06.16.92,1.62,3.37,7.55,2.82,9.25-.01.03-.04.07-.06.1h-.03c-.63.07-1.22.59-1.71.77-5.05,1.86-12.26,5.67-17.59,4.94-6.73-.93-13.83-9.31-20.41-11.85l-.03-.06v-.06l-.1.13c-5.05-.73-9.51.27-14.16-1.31l.31-.31,12.65-.48.06-.03.03-.98-.06-.1-.1-.06c-3.35-.94-6.9-.99-10.36-1.11-1.35-.05-2.72-.45-4.07-.34l-.21-.39c-1.12-.74-1.59-.99-2.35-2.06.82-.45,1.91.54,2.9.79,1.07.27,2.4.51,3.49.63,3.61.41,8.62-.24,11.89.32.12.02.05.47.24.51-.7.17-.78.56-1.08,1.08,1.51,2.25,3.62,4.14,5.91,5.55,4.23,2.6,14.28,8.04,19.02,7.61,1.59-.14,12.29-4.75,12.99-5.7.52-.69-.31-4.76-.55-5.78-.05-.2-.16-.81-.48-.71Z"/><path class="cls-22" d="M111.24,7.77l.09.31c.39-.08,1.04,0,1.49-.15l.3-.4s.01.07.03.1c.15.23.41.38.55.63.03.05.06.11.1.16-.6-.12-.93.45-.98.48-13.19,4.96-19.18-6.58-29.4-7.45-4.78-.41-13.5.23-18.38.79-2.34.27-4.66.8-6.93,1.43.05.15.05.31.13.48.02.05.04.11.06.16-.03-.05-.04-.11-.06-.16-.49.23-3.14,1.01-3.34,1.27-.3.37.32.77-.24.95-1.85-2.13,1.56-3.4,3.3-3.17l.06-.03c3.22-1.82,8.9-2.33,12.8-2.66,3.88-.33,9.17-.52,12.99,0,10.45,1.43,15.18,10.12,27.41,7.63v-.34Z"/><path class="cls-1" d="M62.6,10.46c-1.66-.56-1.85.11-3.65-1.35,1.45-1.41,3.97-.52,5.63-1.01.36-.11.69-.21.55-.7,3.46.12,7.01.17,10.36,1.11l.1.06.06.1-.03.98-.06.03-12.65.48-.31.31Z"/><path class="cls-20" d="M120.56,6.66c-.03-.05-.07-.1-.1-.16l-6.59,2.06s-.04-.11-.06-.16c-.03-.05-.06-.11-.1-.16-.14-.24-.41-.4-.55-.63-.02-.03-.01-.07-.03-.1-.29-.45-.47-1.1-.94-1.5l-.32-.32c.37-.37,5.96-2.15,6.34-2.06,1.04.26,1.78,1.98,2.25,2.85.03.05.07.1.1.16Z"/><path class="cls-6" d="M116.94,20.13l-.09.36c-1.16-.19-1.16-.48-1.81-1.47l-.15-.34c.49-.18,1.08-.7,1.71-.77h.03-.03l.06.03.29,2.19Z"/><path class="cls-2" d="M112.82,8.88c.31-.1.43.51.48.71.24,1.03,1.07,5.09.55,5.78-.71.95-11.4,5.56-12.99,5.7-4.73.43-14.78-5.01-19.02-7.61-2.29-1.41-4.4-3.3-5.91-5.55.29-.52.38-.91,1.08-1.08-.19-.04-.11-.49-.24-.51-3.27-.56-8.28.09-11.89-.32-1.09-.12-2.42-.36-3.49-.63-.99-.25-2.08-1.24-2.9-.79.76,1.07,1.23,1.32,2.35,2.06l.21.39c-.55.05-2.57.78-2.97.78-.06,0-.13,0-.19,0-.85,0-2.65-.82-3.23-1.49.55-.18-.06-.58.24-.95.2-.26,2.86-1.03,3.34-1.27.02.05.04.11.06.16-.03-.05-.04-.11-.06-.16-.08-.16-.08-.32-.13-.48,2.27-.63,4.58-1.16,6.93-1.43,4.89-.56,13.6-1.2,18.38-.79,10.22.87,16.21,12.41,29.4,7.45Z"/><path class="cls-22" d="M79.07,7.11c.05.02.1.05.16.06,4.78,1.57,9.35,4.67,14.26,6.15l.16.4c-.11.01-.37.23-.4.24-1.97.29-10.84-3.98-12.84-5.23-.19-.12-2.21-1.26-1.19-1.55-.05-.02-.1-.05-.16-.06Z"/><path class="cls-4" d="M120.56,6.66c1.01,1.89,3.47,9.74,2.6,11.57-.32.66-5.36,2.34-6.21,2.26v-.36s-.29-2.19-.29-2.19l-.06-.03h.03s.05-.06.06-.1c.55-1.71-1.9-7.63-2.82-9.25l6.59-2.06c.03.05.07.1.1.16Z"/><path class="cls-10" d="M118.69,9.67c.7-.41,2.08.73,1.11,1.55s-2.28-.87-1.11-1.55Z"/><path class="cls-22" d="M61.64,88.59c-3.12-.55-7.95.27-11.41.16-.75-.02-1.47-.14-2.22-.16l-.33.15c.12.32-.1.87.14,1.24l.06.03c4.57.24,10.4,1.5,14.87,1.41.03,0,.06-.03.1-.03l.06.37c1.35.76,1.52,1.78,2.25,2.85.03.05.06.11.1.16-.03-.05-.06-.11-.1-.16-.17.26-.47.1-.67.16-4.4-4.46-11.61-2.01-17.18-3.8.09-.09.1-.23.16-.32-1.03.13-.56-.17-.73-.55-.28-.65-.31-1.22-.79-1.9-1.22-1.75-17.09-11.26-19.41-11.65-6.84-1.15-13.4,4.11-19.54,6.18,0,.05.02.11.03.16,0-.05-.02-.11-.03-.16-.05-.29-.03-.54-.06-.79-.12-.89.04-1.33,0-1.87,0,0,.03-.02.03-.03h.03c.59.07,1.03-.35,1.48-.49l-.09-.3.09.3c5.19-1.68,12.5-5.62,17.82-4.73,6.58,1.09,13.68,8.91,19.97,11.82.27.13,5.38.52,6.02.54,2.93.06,7.81-1.75,9.35,1.39v.03Z"/><path class="cls-13" d="M64.49,94.77c.2-.06.49.1.67-.16.03.05.06.11.1.16.08.12.12.37.19.44,0,0,0,.03,0,.03,0,0,0-.02,0-.03l-.03.06c-3.28,1.71-8.93,2.31-12.8,2.66-5.13.47-12.82.71-17.59-1.17-9.06-3.57-12.08-7.97-22.88-6.63l.06.2-.06-.2c-.7.09-1.57.02-2.31.2l-.29.04c-.47-.81-.73-1.18-1.1-2.1-.02-.05-.04-.11-.06-.16.02.05.04.11.06.16,5.76-1.45,11.8-.44,17.16,1.9,3.06,1.33,6.06,3.6,9.19,4.75,6.8,2.52,22.68,1.82,29.71-.16Z"/><path class="cls-20" d="M6.61,77.77s.06.02.1.03l-.06.33c-.29.6.3,1.63.32,1.9,0,0-.03.02-.03.03.04.54-.12.98,0,1.87l-6.62,1.27c-.09-.94-.42-2.94.32-3.61.39-.35,5.29-1.89,5.99-1.82Z"/><path class="cls-13" d="M50.23,88.75l14.77,1.05c.43.31.63.92.76,1.01l-.03.03c-.75.29-2.1.53-2.88.55-.03,0-.06.03-.1.03-4.47.1-10.3-1.17-14.87-1.41l-.06-.03c-.24-.37-.03-.92-.14-1.24l.33-.15c.75.02,1.47.14,2.22.16Z"/><path class="cls-2" d="M65.44,95.25s0-.02,0-.03c-.07-.07-.11-.32-.19-.44-.03-.05-.06-.11-.1-.16-.73-1.08-.9-2.1-2.25-2.85l-.06-.37s-.06.03-.1.03c.03,0,.06-.03.1-.03.78-.03,2.13-.27,2.88-.55l.03-.03s.02.02.03.03c.57.36,1.94.19,2.82.95,2.74,2.36-2.03,3.97-3.14,3.45-.01,0-.03,0-.03,0Z"/><path class="cls-2" d="M61.64,88.59s.02.03.03.03c1.18.23,2.35.47,3.33,1.17l-14.77-1.05c3.46.11,8.29-.71,11.41-.16Z"/><path class="cls-6" d="M12.19,90.34c-.28,1.35.03,1.65-1.11,2.41l-.16-.19c-.62-.53-.88-1.4-1.25-1.99l.14-.23c.74-.18,1.61-.11,2.31-.2l.06.2Z"/><path class="cls-4" d="M8.39,79.24l.09.3c-.45.15-.9.57-1.48.49h-.03c-.02-.27-.6-1.3-.32-1.9l.06-.33s-.06-.03-.1-.03c.03,0,.06.02.1.03,1.01.21.9.77,1.68,1.44Z"/><path class="cls-2" d="M64.49,94.77c-7.03,1.98-22.91,2.68-29.71.16-3.13-1.16-6.13-3.42-9.19-4.75-5.37-2.34-11.4-3.35-17.16-1.9-.02-.05-.04-.11-.06-.16-.65-1.64-1.03-3.49-1.33-5.23,0-.05-.02-.11-.03-.16,6.14-2.07,12.7-7.34,19.54-6.18,2.32.39,18.19,9.9,19.41,11.65.48.68.51,1.26.79,1.9.17.39-.3.68.73.55-.06.09-.07.22-.16.32,5.57,1.79,12.77-.66,17.18,3.8Z"/><path class="cls-13" d="M30.18,84.63c.9-.38,7.5,2.56,8.72,3.17.73.37,3.57,1.53,3.09,2.41-4-1.6-7.82-3.66-11.89-5.1.35-.16-.09-.41.08-.48Z"/><path class="cls-4" d="M6.93,81.94c.03.25.02.51.06.79,0,.05.02.11.03.16.3,1.74.69,3.59,1.33,5.23.02.05.04.11.06.16.37.92.63,1.29,1.1,2.1l.29-.04-.14.23c.37.59.62,1.46,1.25,1.99l.06.22c-.72.43-4.56,1.82-5.29,1.9-.59.07-.7.21-1.27-.22-2.06-1.58-3.88-8.6-4.12-11.25l6.62-1.27Z"/><path class="cls-15" d="M3.56,85.9c2.68-.69,1.97,3.42,0,2.54-.91-.41-1.09-2.25,0-2.54Z"/><path class="cls-3" d="M4.03,86.37c.72.03,1.1,1.42.16,1.58-1.02.18-1.25-1.63-.16-1.58Z"/><path class="cls-17" d="M59.5,14.59c30.64-1.84,48.67,34.48,27.97,57.6-23,25.68-64.74,5.76-60.06-28.21,2.18-15.84,16.21-28.44,32.09-29.4Z"/><path class="cls-23" d="M44.92,32.65c5.32,1.42,10.79,2.46,16.32,2.38l.24,13.39-19.1.4c-1.24-.62,1.32-14.4,2.54-16.16Z"/><path class="cls-19" d="M76.22,32.97c.35-.09,1.76-.67,1.98-.63.73.13,2.27,6.63,2.46,7.69.5,2.75.73,5.6.79,8.4-.15.34-7.03.39-7.37.24-.46-.2.26-2.54-1.35-3.96-2.26-2-3.78.15-5.94-.16-.83-.12-1.44-1.2-2.3-1.11-.67-1.07-1.52-3.6-1.43-4.83.06-.82,2.86-5.63,3.49-6.26,1.73.07,4.67-.7,6.26-.16.5.17,1.08,1.17,1.74,1.27.9.13.97-.3,1.66-.48Z"/><path class="cls-23" d="M47.37,64.82c-.94-2.84,2.28-5.42,1.43-7.84s-4.66-.8-6.34-2.14c-.19-1.79-.49-3.57-.24-5.39l19.25.08-.4,13.71-12.52,1.27c-.27-2.53,2.52-5.81,1.66-8.16s-5.6-2.58-7.61-3.33c1.05,2.19,6.43,1.32,6.97,3.8.4,1.82-.79,3.06-1.27,4.6-.35,1.11-.05,2.86-.95,3.41Z"/><path class="cls-23" d="M60.61,15.54c.2,0,.78-.06.87.08v18.38c-.23.59-1.7.4-2.3.4-4.52-.03-9.38-1.33-13.79-2.22l-.24-.4c2.28-5.47,6.18-12,11.65-14.82.63-.32,3.24-1.4,3.8-1.43Z"/><path class="cls-23" d="M78.59,63.55l-1.43,1.58c-5-.69-9.91-2.16-15.05-1.98v-13.63c2.41.36,9.26-.74,11.17-.08.2.07,2.86,2.89,2.93,3.09.58,1.64-.34,4.01,0,6.02.36,2.14,1.78,3.36,2.38,4.99Z"/><path class="cls-23" d="M61.48,74.49l-9.67,2.69c-1.15-1.23-5.81-7.44-5.7-8.8.02-.31,1.57-1.7,1.9-2.06.13-.14.4-1.09.55-1.19.25-.15,5.04-.88,5.7-.95,2.3-.25,4.67-.16,6.97-.32.43.31.25,9.34.24,10.62Z"/><path class="cls-23" d="M62.03,15.54c1.14-.48,7.94,3.28,8,3.72,0,.06-.59.72-.63,1.11-.05.47.28,1,.16,1.58-.13.63-1.63,1.4-1.74,2.22s.92,2.03.79,2.38c-.18.48-2.13.13-2.22,1.9-.1,1.99,2.47,2.71,4.04,2.14,1.36-.49,1.86-2.87,2.22-3.01,1.85-.73,2.49,2.95,4.12,3.01l.16-.32c-.45-.09-1.97-2.15-1.98-2.3,0-.09.85-1.25.87-1.66.13.82,2.33,4.4,2.3,4.83-.05.63-2.66,1.15-3.25,1.03-.48-.1-1.22-1.29-1.9-1.43-.88-.17-1.71.3-2.54.32-1.15.03-3.22-.3-4.12.32-.66.45-1.18,2.52-1.9,2.85-.37.17-2.05.28-2.3.08-.72-.6.17-16.62-.08-18.78Z"/><path class="cls-14" d="M78.67,66.41l9.19,3.49.24.24c-5.86,7.37-14.6,12.05-24.01,12.92l4.75-2.54c4.72-3.52,7.77-8.66,9.83-14.1Z"/><path class="cls-14" d="M62.11,74.33c5.22-1.92,10.22-4.7,14.26-8.56.39.11,1.65,0,1.74.55-2.94,7.12-7.96,14.86-16.01,16.48-.18-2.82,0-5.65,0-8.48Z"/><path class="cls-8" d="M41.35,52.94c-2.54,4.58-2.26,9.29-1.27,14.26-.62.21-1.22.52-1.82.79-.8-1.04-1.42-2.26-2.3-3.25-.95-1.07-5.23-4.66-5.55-5.39-.66-1.51.75-1.85.95-2.69.34-1.46-.64-3.93,1.51-4.67.64-.22,5.78-.3,6.5-.16.11.02,1.9,1.02,1.98,1.11Z"/><path class="cls-19" d="M88.58,42.95v.76c1.43.97,1.48.38,2.69.03.28-.08.82-.47.87-.48.42-.03.37.45.4.48.81.93-2.55,4.79-2.93,4.91-.35.11-6.96.15-7.29,0-.45-2.86-.52-5.78-1.03-8.64-.26-1.43-2.07-6.77-2.06-7.45,0-.55.21-.6.71-.55,2.68,1.71,6.22,10.04,8.64,10.93Z"/><path class="cls-16" d="M83.82,24.57c.33.27.76.92,1.58.63.83.85,1.83,1.6,2.38,2.69-1.21.49-4.49.42-5.39.95-.3-.95-.92.48-1.19.63-.93.53-2.3.15-1.82,1.82l-.55.08c.05-.87-2.49-4.87-2.46-5.15.03-.34.24-.44.55-.4.51.11.17,1.31,1.19-.08-.42-.81-2.24-.58-2.77-.08-.24.23-.35,1.31-.79,1.43-.29.07-1.18-.39-1.74-.32-1.54.2-1.03,1.93-2.06,2.69-1.16.86-4.01.53-3.57-1.19.22-.84,2.52-.65,2.22-2.22-.02-.1-.75-.88-.79-1.11-.26-1.48,1.04-1.29,1.43-2.38.28-.79-.08-1.81.16-2.38.59-1.44,3.04-.21,2.85.16-1.7.17-1.91,4.25-2.3,4.36-.18.05-.97-.35-1.19.08-.43.84,1.71,1.11,2.22,0,.36-.79-.02-1.64.16-2.38.03-.13,1.39-1.8,1.51-1.82.53-.11,4.34,2.67,4.67,3.25.09.15-.09.9,0,1.11.21.49,3.12.92-.71,1.98-.78.83,2.99.59,2.46-1.35-.16-.58-1.37-.56-1.03-1.35,1.62.71,3.28.8,4.99.32Z"/><path class="cls-23" d="M76.37,65.77c-4.04,3.86-9.04,6.64-14.26,8.56,0-3.43-.06-6.87.08-10.3,4.78-.03,9.6.39,14.18,1.74Z"/><path class="cls-8" d="M88.02,28.69c.16,0,.32,0,.48,0,1.48,1.8,2.68,3.85,3.72,5.94-.12.61-2.1-.77-2.06.95.05,2.25,3.84,3.53,3.96,3.96.57,2.01-3.97,3.93-5.63,2.61-.83-.66-.05-1.63-.24-2.61-.27-1.36-2.22-1.55-2.69-2.38-.69-1.19-.36-3.99-3.01-3.8,2.23,1.1,1.7,2.69,2.54,4.12.69,1.19,3.64,1.53,2.46,3.72l-6.89-9.27.24-.4c1.79.1,5.89-2.79,7.13-2.85Z"/><path class="cls-8" d="M87.39,49.29c.31,0,1.71-.07,1.82.08-2.32,1.74-.35,5.95-.79,7.13-.26.71-2.69,2.02-3.33,2.85-1.31,1.71-1.73,5.46-4.67,5.47l-.71-.87c1.52-4.65,2.36-9.52,2.38-14.42,1.76,0,3.56-.21,5.31-.24Z"/><path class="cls-23" d="M27.96,49.29c1.6.6,13-.31,13.39.24.09.13.24,2.48.08,2.61-1.69-1.41-7.47-1.59-9.19-.63-2.36,1.31-1.13,3.35-1.51,4.83-.22.88-1.42.89-1.11,2.69.34,1.99,7.04,6.43,7.77,9.03-.02.33-2.31,1.52-2.46,1.51-.32-.03-2.49-3.37-2.77-3.88-2.72-4.85-4.3-10.84-4.2-16.4Z"/><path class="cls-19" d="M74.39,49.29l7.05.24c-.05,4.6-.78,9.17-2.14,13.55-.55.4-2.4-4.36-2.46-4.83-.28-2.42,1.07-4.3-.48-6.66-.23-.35-2.51-1.98-1.98-2.3Z"/><path class="cls-23" d="M62.19,35.03c.07-.05,1.75-.02,1.82.08-2.65,1.97-1.28,8.83,1.03,10.22,2.51,1.5,9.59-3.23,7.92,3.33l-10.86-.08c.34-1.6-.47-13.16.08-13.55Z"/><path class="cls-14" d="M61.48,74.49c0,.95.17,8.25-.24,8.4-3.98-.79-6.74-2.83-9.43-5.7l9.67-2.69Z"/><path class="cls-5" d="M47.37,64.82c-.53.32-2.28.88-2.69.24-.91-1.39-2.02-8.31-2.22-10.22,1.68,1.34,5.46-.35,6.34,2.14s-2.37,5-1.43,7.84Z"/><path class="cls-18" d="M45.47,21.88c-2.93,1.02-6.59,3.9-8.56,6.26-.21.25-.41.3-.32.71-1.64-.14-1.34-.7-.63-1.66,3.89-5.29,15.39-11.62,21.95-11.65.24,0,.73-.1.48.32-2.09.45-3.64,2.02-5.55,2.85s-6.25,1.44-7.37,3.17Z"/><path class="cls-19" d="M40.09,67.2c-.99-4.97-1.27-9.68,1.27-14.26.5.56.98,5.7,1.27,7.05.4,1.87,1.21,3.71,1.74,5.55-.06.22-3.74,1.48-4.28,1.66Z"/><path class="cls-23" d="M46.66,21.4c.85-.17.47,2.46,2.46,1.98-2.22,2.44-3.23,5.72-4.83,8.48-1.07-.73-4.73-1.28-5.55-1.9-1.15-.88,2.73-3.48,2.85-4.6.66,1.65,1.45,1.07,2.54.16-.28,3.08,3.37,1.19,2.61-.55-.12-.27-1.23-1.08-1.27-1.27-.08-.39.87-2.23,1.19-2.3Z"/><path class="cls-23" d="M50.7,77.18l-6.18.95c-.28-.22-.65,0-.95-.71-.15-.35-.37-2.43-.32-2.85.19-1.45,1.23-1.51,1.58-2.3.02-.05.15-.42.16-.48.75-.65-.11-2.12.87-2.69,1.11,2.74,2.88,5.86,4.83,8.08Z"/><path class="cls-14" d="M50.7,77.18c2.12,2.4,5.35,4.84,8.48,5.55.16.08-.12.31-.16.32-.24.05-4.18-.66-4.75-.79-2.76-.64-7.5-2.39-9.75-4.12l6.18-.95Z"/><path class="cls-14" d="M92.54,43.75s.03-.51-.4-.48c-.05,0-.59.39-.87.48-1.21.35-1.26.94-2.69-.03v-.76c2.41.89,4.32-.19,6.02-1.82l.95,7.29-4.67.24-.16-.32c1.1-1.39,3.38-2.98,1.82-4.6Z"/><path class="cls-8" d="M71.78,16.96c-.24.36.46.97.71,1.11,4.16,2.27,6.57,2.97,10.7,6.02-.78-.02-1.51.24-2.3.16-2.97-.31-4.48-3.11-6.97-4.44-.76-.41-1.98-.64-2.61-.95l-.48-2.22c.35.1.63.22.95.32Z"/><path class="cls-19" d="M45,69.42c-.88.61-.05,2-1.11,2.61.23,0,.45.23.48.24-.55.21-1.41,1.07-1.58,1.58l-2.38-6.02c.51-.22,3.98-1.52,4.2-1.43.81.34.41,2.44.4,3.01Z"/><path class="cls-23" d="M37.47,68.94c.37-.03.46-.04.71.24s3.08,6.4,2.77,6.58l-5.63-5.47c-.02-.28,2-1.34,2.14-1.35Z"/><path class="cls-8" d="M40.4,67.83l2.38,6.02c-.21.63.05,3.24-.32,3.09-.39-1.09-3.97-8.08-3.72-8.48.53-.26,1.13-.4,1.66-.63Z"/><path class="cls-5" d="M85.41,25.2c-.82.28-1.26-.36-1.58-.63-.07-.06.32-.17-.08-.48-.07-.06-.48.05-.55,0-4.13-3.06-6.54-3.75-10.7-6.02-.25-.14-.95-.75-.71-1.11,5.17,1.62,9.83,4.38,13.63,8.24Z"/><path class="cls-19" d="M32.32,35.66c.25-2.1,2.26-4.64,3.8-6.18.29.14.94.18,1.27.55-.42.44-1.09.75-1.43,1.27-.81,1.24-1.64,5.99-3.64,4.36Z"/><path class="cls-19" d="M45.47,21.88c-.09.14-.46.86-.48.95-.52-.23-3.2,1.27-2.54,1.9-.42.04-.77-.07-1.19.16-.22.12-2.86,3.69-3.17,3.8-.07.03-1.43.16-1.51.16-.09-.42.11-.47.32-.71,1.97-2.36,5.63-5.24,8.56-6.26Z"/><path class="cls-23" d="M70.83,16.65l.48,2.22c-1.23-.61-2.24-1.15-3.57-1.9-.86-.49-1.86-.82-2.77-1.19,1.8-.35,4.11.38,5.86.87Z"/><path class="cls-8" d="M87.78,27.9c.09.52-6.45,3.18-7.05,3.17-2.26-.06.49-.85.63-.95.41-.29.88-1.18,1.03-1.27.89-.53,4.18-.46,5.39-.95Z"/><path class="cls-19" d="M45,22.83c-.49,2.3,2.14,2.28.87,3.33-1.44,1.19-.78-.79-1.27-1.11s-1.52-.38-2.14-.32c-.66-.63,2.01-2.13,2.54-1.9Z"/><path class="cls-18" d="M76.22,32.97c-.69.17-.77.6-1.66.48-.66-.1-1.24-1.1-1.74-1.27-1.59-.54-4.52.22-6.26.16.29-.29.64-.56,1.03-.63s5.28-.25,5.55-.16c.37.12,1.59,2.18,3.09,1.43Z"/><path class="cls-18" d="M72.73,44.7c-3.34-1.52-5.96,2.37-8.24-1.27.86-.09,1.47.99,2.3,1.11,2.17.3,3.68-1.84,5.94.16Z"/><path class="cls-14" d="M90.87,35.51c1.8-.33,2.66,1.22,2.69,2.85-.32.22-3.11-1.97-2.69-2.85Z"/><path class="cls-19" d="M50.39,21.4l-2.38.32c-.03-.14-.35-.47-.08-.79.14-.16,3.89-1.27,4.04-1.03-.64.4-1.04,1-1.58,1.51Z"/><path class="cls-8" d="M35.65,48.18c.05.11.14.2.16.32-.49.01-1.23.16-2.06.16-.02-.2-.05-.23.16-.32,1.14-.45-.09-1.46,1.35-1.43,1,.02.03.51.4,1.27Z"/><path class="cls-19" d="M46.98,65.61c.15,0,.46-.05.55.08-.22.29-1.55,1.93-1.82,1.82-.11-.04-.49-1.16-.4-1.35.04-.08,1.55-.55,1.66-.55Z"/><path class="cls-14" d="M78.59,63.55c.17.47.41.9,0,1.51-.46.69-.82.16-1.43.08l1.43-1.58Z"/><path class="cls-8" d="M50.39,21.4c-.61.57-1.92,2.43-2.38.32l2.38-.32Z"/><path class="cls-8" d="M45,69.42c-.01.68.11,1.78,0,2.38-.01.06-.13.42-.16.48-.15-.02-.34.03-.48,0-.03,0-.24-.24-.48-.24,1.06-.61.23-2.01,1.11-2.61Z"/><path class="cls-14" d="M90.24,49.29c.96-.18,3.8.43,5.07,0,.46,4.25-.76,9.34-2.46,13.23-.46,1.07-3.76,7.1-4.67,7.05-.94-1.17-8.7-3.44-9.03-3.8-.21-.23-.02-.95.32-.95.39,0,.82,1.32,2.85.16s2.23-3.87,3.41-5.31c.73-.9,2.41-1.41,3.01-2.38.97-1.56-.47-3.38-.16-5.39.08-.51,1.11-2.51,1.66-2.61Z"/><path class="cls-7" d="M91.9,56.9c1.82-.85-.13,6.78-2.54,5.26-1.25-.79,1.8-4.92,2.54-5.26Z"/><path class="cls-23" d="M36.12,29.48c-1.55,1.54-3.55,4.08-3.8,6.18,0,.04-.54.14-.16.71,2.84,1.61,3.25-3.47,4.44-4.91.08-.1,1.41-1.17,1.51-1.19.42-.07,5.25,2.05,6.1,2.3-1.7,5.1-2.81,10.44-2.69,15.85-.32.71-4.98.06-5.7.08-.02-.12-.1-.21-.16-.32,2.48-2-2.6-2.75-1.74.16-.21.08-.18.11-.16.32-1.85,0-3.77.2-5.63.32v-2.38c1.75-.48,3.16,2.62,4.52,1.51-.84-.4-1.73-1.42-2.46-1.82-.58-.32-1.7-.36-1.9-.48-.31-.17-.22-2.73.79-2.22.51,1.72,1.26.75,1.9.95.05.02.41.76.63.79.46.06.46-.59,1.03-.24-.09.31-.8.85-1.03.87-.91.07-.58-.96-1.35-.71.51,3.07,4-.31,2.46-.71-.31-.08-.53.26-.79.16-.17-.07-.47-.57-.63-.63-.24-.09-1.14.09-1.27,0-.35-.25.56-1.76-1.43-1.11-.6-2.11,4.76-13.82,6.18-14.1.44-.09,1,.46,1.35.63Z"/><path class="cls-17" d="M35.65,48.18c-.37-.76.6-1.24-.4-1.27-1.44-.03-.21.98-1.35,1.43-.85-2.91,4.22-2.16,1.74-.16Z"/><path class="cls-12" d="M32.08,40.73c1.83-.53,1.96,2.5,2.22,2.54.74.11-.12-1.25-.08-1.35.92-.7,1.14.61.79,1.27-.83,1.59-3.89-1.09-2.93-2.46Z"/><path class="cls-19" d="M32.56,41.37c.6-.38,1.21.93.79,1.27-.2.16-1.18-1.02-.79-1.27Z"/><path class="cls-17" d="M33.03,37.88c2.41-.1-1.16,3.67-1.35.55.03-.06,1.27-.55,1.35-.55Z"/><path class="cls-8" d="M33.19,38.36c.26.03.36.09.16.32-.33.41-.65.65-1.19.4-.17-.37.97-.72,1.03-.71Z"/><path class="cls-11" d="M6.96,80.04h.03c.59.07,1.03-.35,1.48-.49,5.19-1.68,12.5-5.62,17.82-4.73,6.58,1.09,13.68,8.91,19.97,11.82.27.13,5.38.52,6.02.54,2.93.06,7.81-1.75,9.35,1.39v.03"/><path class="cls-11" d="M8.39,79.24c-.78-.67-.67-1.23-1.68-1.44-.03,0-.06-.03-.1-.03-.7-.07-5.6,1.47-5.99,1.82-.74.67-.4,2.67-.32,3.61.24,2.65,2.06,9.67,4.12,11.25.56.43.67.29,1.27.22.73-.08,4.57-1.48,5.29-1.9.03-.02.07-.01.1-.03,1.14-.76.83-1.06,1.11-2.41"/><path class="cls-21" d="M88.07,43.27c.37-.05.52.33.84.47.24.14.49.28.74.33.48.1.99-.34,1.58-.47.77-.24.53-.13.09.3-.59.13-1.07.6-1.73.48-.49-.12-.84-.34-1.23-.64-.25-.31-.29-.01-.44-.24-.05-.11.04-.22.15-.23h0Z"/><path class="cls-9" d="M76.85,11.73l.03.03c6.58,2.54,13.68,10.93,20.41,11.85,5.33.73,12.54-3.07,17.59-4.94.49-.18,1.08-.7,1.71-.77h.03"/><polyline class="cls-9" points="75.58 9.67 76.85 11.64 76.85 11.7 76.85 11.73"/><polyline class="cls-9" points="75.58 9.67 75.55 9.67 62.9 10.15"/><path class="cls-9" d="M57.99,7.93c.21.54.51.82.95,1.17,1.8,1.46,2,.79,3.65,1.35,4.65,1.58,9.11.58,14.16,1.31l.1-.03"/><path class="cls-9" d="M93.49,13.32c-4.91-1.48-9.48-4.58-14.26-6.15-.05-.02-.1-.05-.16-.06-.89-.28-1.41-.12-2.06-.25-.7.17-.78.56-1.08,1.08-.12.21-.14.48-.35.63"/><polyline class="cls-9" points="75.58 9.67 75.61 9.64 75.65 8.66 75.58 8.57"/><path class="cls-9" d="M112.19,6.03c.46.39.64,1.04.94,1.5.02.03.01.07.03.1.15.23.41.38.55.63.03.05.06.11.1.16.03.05.04.11.06.16.92,1.62,3.37,7.55,2.82,9.25l-.06.1"/><path class="cls-9" d="M111.24,7.77c.23-.84-.06-1.38.63-2.06.37-.37,5.96-2.15,6.34-2.06,1.04.26,1.78,1.98,2.25,2.85.03.05.07.1.1.16,1.01,1.89,3.47,9.74,2.6,11.57-.32.66-5.36,2.34-6.21,2.26-.03,0-.06,0-.1,0-1.16-.19-1.16-.48-1.81-1.47"/><polyline class="cls-9" points="116.63 17.91 116.66 17.95 116.94 20.13"/><path class="cls-9" d="M75.58,8.57l-.1-.06c-3.35-.94-6.9-.99-10.36-1.11-1.35-.05-2.72-.45-4.07-.34-.55.05-2.57.78-2.97.78l-.1.1"/><path class="cls-9" d="M57.99,3.18l.03-.03c3.22-1.82,8.9-2.33,12.8-2.66,3.88-.33,9.17-.52,12.99,0,10.45,1.43,15.18,10.12,27.41,7.63.03,0,.06-.02.1-.03.39-.08,1.04,0,1.49-.15"/><path class="cls-9" d="M57.99,7.93l-.1-.1c-.85,0-2.65-.82-3.23-1.49-1.85-2.13,1.56-3.4,3.3-3.17h.03"/><path class="cls-9" d="M57.99,3.18c.07.15.07.32.13.48s.05.31.13.48c.02.05.04.11.06.16.06.11.12.22.19.32.76,1.07,1.23,1.32,2.35,2.06"/><path class="cls-11" d="M62.9,91.76c1.35.76,1.52,1.78,2.25,2.85.03.05.06.11.1.16.08.12.12.37.19.44,0,0,0,.03,0,.03"/><path class="cls-11" d="M65.44,95.25l-.03.03c-3.28,1.71-8.93,2.31-12.8,2.66-5.13.47-12.82.71-17.59-1.17-9.06-3.57-12.08-7.97-22.88-6.63-.7.09-1.57.02-2.31.2"/><path class="cls-11" d="M47.85,90.02h.03c4.57.24,10.4,1.5,14.87,1.41.03,0,.06-.03.1-.03.78-.03,2.13-.27,2.88-.55l.03-.03"/><path class="cls-11" d="M65.44,95.25h.03c1.11.52,5.88-1.09,3.14-3.45-.88-.76-2.26-.59-2.82-.95l-.03-.03"/><path class="cls-11" d="M61.64,88.59c-3.12-.55-7.95.27-11.41.16-.75-.02-1.47-.14-2.22-.16"/><path class="cls-11" d="M61.64,88.59l.03.03c1.18.23,2.35.47,3.33,1.17.43.31.63.92.76,1.01"/><path class="cls-11" d="M29.94,85.11h.16c4.07,1.45,7.89,3.5,11.89,5.1,1.63.65,3.78,2.3,5.32.76.09-.09.1-.23.16-.32.13-.19.18-.48.38-.63"/><path class="cls-11" d="M46.74,87.17c.29.43.77,1.12.94,1.58.12.32-.1.87.14,1.24l.03.03"/><path class="cls-11" d="M6.96,80.04l-.03.03c.04.54-.12.98,0,1.87.03.25.02.51.06.79,0,.05.02.11.03.16.3,1.74.69,3.59,1.33,5.23.02.05.04.11.06.16.37.92.63,1.29,1.1,2.1.03.05.11.11.16.19.37.59.62,1.46,1.25,1.99"/><path class="cls-11" d="M6.65,78.13c-.29.6.3,1.63.32,1.9"/></g></g></svg>