<?xml version="1.0" encoding="UTF-8"?><svg id="Layer_2" xmlns="http://www.w3.org/2000/svg" viewBox="0 0 141.67 95.72"><defs><style>.cls-1{stroke:#0b270a;stroke-width:1.35px;}.cls-1,.cls-2,.cls-3,.cls-4,.cls-5{stroke-linecap:round;stroke-linejoin:round;}.cls-1,.cls-3,.cls-6{fill:#7dc851;}.cls-2{fill:#fed000;}.cls-2,.cls-5{stroke:#0c290a;stroke-width:1.58px;}.cls-3{stroke:#0b2709;}.cls-3,.cls-4{stroke-width:1.13px;}.cls-7{fill:#4ca015;}.cls-4{fill:#e1f49a;stroke:#0b290a;}.cls-5{fill:none;}.cls-8{fill:#b2de79;}</style></defs><g id="Layer_1-2"><g id="Generative_Object"><path class="cls-8" d="M135.12,29.76c.07-.03.14-.06.2-.1l.52.61,4.64,2.6.2.11v.21s-94.99,44.83-94.99,44.83l-.2-.11L1,53.31l-.2-.11h0s.15-.06.2-.13c.38-.65,3.78-2.3,4.52-3.1.03.06.11.09.2.11l39.9,22.11.2.11.2-.1c29.15-14.87,60.16-27.32,89.11-42.44Z"/><path class="cls-8" d="M134.35,42.2c.07-.03.14-.06.2-.1l.4.52c.69.73,3.1,1.77,3.55,2.43.05.07.17.08.2.14l-92.76,43.96c-.09.02-.17.04-.2.1l-.2-.11L2.86,66.23l-.2-.11h0c.12-.35,3.54-2.44,4.06-3.03l.63-.76c.07.04.13.07.2.11,12.69,7.21,25.64,13.96,38.36,21.13l.2.11h0l.2-.1c29.09-14.29,59.05-26.92,88.05-41.38Z"/><path class="cls-6" d="M134.35,42.2c-29,14.46-58.96,27.09-88.05,41.38l-.2.1h0l-.39-5.41-.02-.24,94.99-44.83v-.21s-.2-.11-.2-.11l.2.11v.21s.19.16.19.16c-.32,1.16.09,4.87-.45,5.69s-4.66,2.45-5.86,3.05c-.07.03-.14.06-.2.1Z"/><path class="cls-6" d="M135.12,29.76c-28.95,15.11-59.96,27.56-89.11,42.44l-.2.1-.02-5.61v-.23h0l.2-.1,94.58-45.03.2-.1-.2.1.2.17c-.22,1.01.06,4.8-.34,5.4s-4.13,2.26-5.1,2.77c-.07.03-.14.06-.2.1Z"/><path class="cls-6" d="M45.18,94.7l.43-.24c.22-.87-.15-4.78.12-5.22.03-.05.11-.08.2-.1l92.76-43.96c.03.06-.03.17,0,.25.2.48.09,5.81-.68,6.26l-92.42,43.23-.21-.12-.21-.12Z"/><path class="cls-7" d="M45.69,78.04l.02.24.39,5.41-.2-.11c-12.71-7.17-25.67-13.92-38.36-21.13-.07-.04-.13-.07-.2-.11-1.22-.7-5.18-2.37-5.81-3.25-.17-.24-.84-5.6-.74-5.88h0l.2.11,44.49,24.61.2.11Z"/><path class="cls-7" d="M45.74,89.24c-.27.44.09,4.34-.12,5.22l-.43.24c-5.03-3.88-40.58-20.51-42.03-23.46-.11-.22-.51-4.63-.46-4.87.02-.08-.07-.19-.05-.25h0l.2.11,42.69,22.91.2.11Z"/><path class="cls-7" d="M45.78,66.45h0v.23s.02,5.61.02,5.61l-.2-.11L5.71,50.08c-.09-.02-.17-.05-.2-.11-.03-.05.03-.16,0-.24-.09-.22-.2-4.52-.1-4.73.04-.08-.03-.2,0-.24h0l.2.11,40.18,21.58h0Z"/><path class="cls-6" d="M140.76,21.23l-.2.1-94.58,45.03-.2.1h0L5.6,44.87l-.2-.11h0l.23-.09L101.34.79c13.45,5.2,25.99,14.86,39.19,20.34l.23.1h0Z"/><path class="cls-4" d="M93.01,8.62c2.94.27,5.32,1.62,8.55,1.76,2.09.09,6.88-1.17,7.88-.9,3.68.98,9.15,5.94,13.12,7.19l.21.59c-2.18,3.18-2.92,5.03-1.23,8.67L53.85,58.5c-2.44-1.06-4.77-1.66-7.43-1.67-2.26,0-6.05,1.42-7.2,1.35-.92-.06-15.78-7.88-16.17-8.71,1.33-3.31,4.71-5.83.09-8.47h0L93.01,8.62Z"/><path class="cls-2" d="M71.85,24.65c5.19-.62,17.24.62,17.02,7.88-.33,10.96-32.38,11.58-29.85.23,1.14-5.1,8.21-7.55,12.83-8.1Z"/><path class="cls-3" d="M53.17,40.18c1.2.04,3.28.31,3.78,1.58,1.2,3.31-10.72,6.64-12.42,3.38-1.5-2.87,6.77-5.01,8.64-4.95Z"/><path class="cls-1" d="M98.64,19.24c9.3-1.42,6.08,5.39-1.8,6.08-8.57.74-4.66-5.09,1.8-6.08Z"/><polyline class="cls-5" points="140.76 21.23 140.56 21.32 45.98 66.35 45.78 66.45"/><polyline class="cls-5" points="45.69 78.04 45.7 78.27 46.09 83.68"/><polyline class="cls-5" points="5.4 44.76 5.6 44.87 45.78 66.45"/><polyline class="cls-5" points="5.51 49.97 5.71 50.08 45.6 72.19 45.8 72.3"/><path class="cls-5" d="M6.72,63.09c-.52.59-3.94,2.68-4.06,3.03"/><path class="cls-5" d="M.8,53.2c-.1.28.57,5.64.74,5.88.63.88,4.58,2.55,5.81,3.25.07.04.13.07.2.11,12.69,7.21,25.64,13.96,38.36,21.13l.2.11"/><polyline class="cls-5" points="2.66 66.12 2.86 66.23 45.54 89.14 45.74 89.24"/><path class="cls-5" d="M45.74,89.24c-.27.44.09,4.34-.12,5.22v.47"/><path class="cls-5" d="M5.51,49.97c-.74.8-4.14,2.45-4.52,3.1l-.2.13"/><polyline class="cls-5" points="138.7 45.19 45.95 89.15 45.74 89.24"/><path class="cls-5" d="M138.7,45.19v.25c.2.48.09,5.81-.68,6.26l-92.42,43.23"/><path class="cls-5" d="M134.96,42.62c.69.73,3.1,1.77,3.55,2.43l.2.14"/><path class="cls-5" d="M140.88,33.11l-.02.26c-.32,1.16.09,4.87-.45,5.69s-4.66,2.45-5.86,3.05c-.07.03-.14.06-.2.1-29,14.46-58.96,27.09-88.05,41.38l-.2.1"/><path class="cls-5" d="M.8,53.2c.07.04.13.07.2.11l44.49,24.61.2.11"/><polyline class="cls-5" points="140.88 33.11 140.68 33.2 45.69 78.04"/><polyline class="cls-5" points="135.84 30.28 140.48 32.88 140.68 32.99 140.88 33.11"/><path class="cls-5" d="M140.76,21.23v.27c-.22,1.01.06,4.8-.35,5.4s-4.13,2.26-5.1,2.77c-.07.03-.14.06-.2.1-28.95,15.11-59.96,27.56-89.11,42.44l-.2.1"/><polyline class="cls-5" points="45.78 66.45 45.78 66.68 45.8 72.3"/><path class="cls-5" d="M5.4,44.76v.24c-.09.22.01,4.51.1,4.73v.24"/><path class="cls-5" d="M45.61,94.94l-.21-.12-.21-.12c-5.03-3.88-40.58-20.51-42.03-23.46-.11-.22-.51-4.63-.46-4.87l-.05-.25"/><path class="cls-5" d="M140.76,21.23l-.23-.1c-13.2-5.49-25.74-15.15-39.19-20.34L5.63,44.67c-.1.01-.19.04-.23.09"/></g></g></svg>