<?xml version="1.0" encoding="UTF-8"?><svg id="Layer_2" xmlns="http://www.w3.org/2000/svg" xmlns:xlink="http://www.w3.org/1999/xlink" viewBox="0 0 205.77 102.42"><defs><style>.cls-1{fill:#e78617;}.cls-2{fill:#f0e3de;}.cls-3{fill:#a87e3b;}.cls-4{fill:#6c5428;}.cls-5{fill:#906b29;}.cls-6{fill:#87733c;}.cls-7{fill:#dcc5c0;}.cls-8{fill:#b09380;}.cls-9{fill:url(#linear-gradient);}.cls-10{fill:#f8d269;}.cls-11{fill:#c78f25;}.cls-12{fill:#d6806d;}.cls-13{fill:#41240b;}.cls-14{fill:#dc7514;}.cls-15{fill:#9d806d;}.cls-16{fill:#e39083;}.cls-17{fill:#f29c11;}.cls-18{fill:#463515;}.cls-19{fill:#fff;}.cls-20{fill:#cbb29f;}.cls-21{fill:#e7d6c3;}.cls-22{fill:#f6ebd9;}.cls-23{fill:#2e1e0d;}.cls-24{fill:#464327;}.cls-25{fill:#d3ac5b;}</style><linearGradient id="linear-gradient" x1="106.8" y1="7.57" x2="111.12" y2="78.26" gradientUnits="userSpaceOnUse"><stop offset="0" stop-color="#f9c01a"/><stop offset="1" stop-color="#f5a71b"/></linearGradient></defs><g id="Layer_1-2"><g id="Generative_Object"><path class="cls-14" d="M172.97,74.89c1.18,1.12,5.12,8.15,6.69,10.32,3.81,5.24,8.93,13.49,16.73,11.71l.56.84c-.78.57-1.51,1.93-2.65,2.51-4.02,2.05-10.73,1.44-15.2,1.67-14.66.02-26.9-.65-41.27-1.12-18.19-.68-34.88-11.02-52.14-14.22.21-.1.78-.81.84-.84.96-.44,4.45,2.35,4.18-.42-.16-1.68-2.36-.58-2.79-1.39-.06-.11.75-1.42-.7-2.09l.14,1.81-1.12-.42c.93-2.57,1.7-2.01,4.32-1.67,7.68.99,18.8,6.68,26.77,8.92,21.35,6,44.82,7.2,66.92,5.86.24-.23.42-.31.42-.7-.01-.64-7.01-8.52-8.09-10.04-2.25-3.19-4.18-6.52-6.13-9.9l1.53-1.67c.05.82.88.75.98.84Z"/><path class="cls-17" d="M196.95,97.76l-.56-.84c3.29-.75,5.14-4.15,6.13-7.11,4.24-12.61,1.57-42.18-4.46-54.23-1.88-6.28-4.67-13.05-7.81-18.82-3.23-5.94-11.11-20.15-19.38-14.08-3.59,2.63-10.07,23.94-10.46,28.86-1.19,15.05,5.29,30.55,12.55,43.36-.09-.09-.93-.02-.98-.84l-1.53,1.67c-.11-.19-.56-.63-.84-1.12-13.41-23.91-16.78-40.36-6.41-66.22,1.1-2.76,2.86-5.05,4.18-7.67,8.27-.9,10.72-2.17,16.73,4.6,14.99,16.88,27.26,64.71,18.96,85.88-1.68,4.29-2.91,4.2-6.13,6.55Z"/><path class="cls-18" d="M86.53,85.77c.2-.83-.82-1.36-.84-1.53-.07-.91.54-.92.56-.98l1.12.42-.14-1.81c1.45.67.64,1.98.7,2.09.43.82,2.63-.28,2.79,1.39.26,2.77-3.22-.03-4.18.42Z"/><path class="cls-1" d="M162.1,76.01c1.4.65.56,3.54,2.09,3.35s-.94-2.11.98-3.62c1.19-.94,3.09-.6,4.46-1.12.27.48.73.93.84,1.12,1.96,3.37,3.88,6.71,6.13,9.9,1.07,1.52,8.08,9.39,8.09,10.04,0,.38-.18.47-.42.7-22.1,1.34-45.57.15-66.92-5.86-7.97-2.24-19.09-7.93-26.77-8.92-2.62-.34-3.39-.89-4.32,1.67-.02.05-.63.07-.56.98.01.18,1.04.71.84,1.53-.05.02-.63.74-.84.84-11.53-2.14-21.5,1.09-31.37-.28-1.55-.22-3.23-1.59-3.76-1.67-.38-.59-.33-1.3-.28-1.95.07-.8.3-1.24.56-1.95.37-1.04,1.21-2,1.67-3.07.3-.69,1.31-1.79,1.12-2.65-.21-.93-4.89-2.92-5.86-3.49-.32-1.27-.08-1.88.28-3.07.47-1.57,2.52-3.77,2.23-5.02-.05-.24-.2-.31-.28-.56l7.53-.98c-7.04,5.29-6.36,9.27,2.93,9.34,8.08.06,17.57-2.15,25.65-1.67,9.54.56,18.34,6.17,27.33,8.37,14.72,3.6,34.03,1.57,48.66-1.95Z"/><path class="cls-13" d="M165.17,75.73c-1.92,1.52.56,3.43-.98,3.62s-.69-2.69-2.09-3.35c.49-.12.66.29.7.28.15-.04.3-2.06,2.37-.56Z"/><path class="cls-23" d="M130.17,86.33l1.53.42c-.76,1.56-.55,2.05,0,3.62-1.84,2.59-2.3-3.73-1.53-4.04Z"/><path class="cls-23" d="M146.62,84.93c2.92-.19.09,1.95,2.09,3.49-1.57,1.9-1.1-.87-2.23.28l.14-3.76Z"/><polygon class="cls-3" points="86.95 71.83 87.23 73.22 86.53 72.8 86.95 71.83"/><path class="cls-9" d="M167.4.72c-1.32,2.62-3.08,4.91-4.18,7.67-10.36,25.86-6.99,42.31,6.41,66.22-1.37.52-3.27.17-4.46,1.12-2.07-1.5-2.22.52-2.37.56-.04,0-.21-.4-.7-.28-14.63,3.52-33.94,5.55-48.66,1.95-8.98-2.2-17.78-7.8-27.33-8.37-8.08-.48-17.57,1.73-25.65,1.67-9.29-.07-9.97-4.05-2.93-9.34l-7.53.98c-.02-.07-.72-.63-.84-1.12-.53-2.29.84-4.2,2.93-5.02,3.67-1.44,10.68-2.03,15.06-3.35,26.25-7.91,35.46-29.48,57.72-41.55,10.55-5.72,30.49-9.85,42.52-11.15Z"/><path class="cls-18" d="M110.09,69.88c.28-.02.56.01.84,0,1.77.62-2.86,2.64-3.07,2.51-1.29-.83,1.74-2.47,2.23-2.51Z"/><path class="cls-11" d="M140.21,54.82c3.22.37,1.28,4.45.14,2.93-.08-.1,1.05-1.24-.56-1.95l.42-.98Z"/><path class="cls-5" d="M136.58,51.19c0,.73,2.15,2.27,1.95,2.51-.9,1.11-3.6-1.31-1.95-2.51Z"/><path class="cls-4" d="M79.14,62.63c1.06-.68.37,2.51,1.81,2.09-.76,2.64-2.38-1.73-1.81-2.09Z"/><path class="cls-4" d="M146.07,42.83c.94-.06-.84,1.98-1.12,1.95l-.28-.84,1.39-1.12Z"/><path class="cls-11" d="M151.92,55.93c.79.03.62,1.38-.28,1.12-.81-.24-.17-1.13.28-1.12Z"/><path class="cls-17" d="M151.36,54.82c.6-.26.81.88.28.84-.17-.02-.67-.67-.28-.84Z"/><path class="cls-10" d="M146.76,27.49c-.7-.6-.66-.42-1.53-.28.46.3.38,1.07.42,1.12-6.42,6.23-14.69,9.43-23.28,11.43-6.23,1.45-14.24,1.65-20.08,3.62-4,1.35-7.74,4.79-11.43,6.69-9.58,4.94-21.4,7.36-32.07,7.53,5.66-1.73,11.65-2.09,17.29-3.9,22.11-7.1,33.65-33.9,58.56-42.94,3.27-1.19,21.8-6.11,23.28-2.37.89,2.24-5.16,11.53-6.69,13.66-1.36,1.89-3.72,3.35-4.46,5.44Z"/><path class="cls-3" d="M146.76,27.49c-.05.13.74.89-.14,1.39-.25.1-.8-.34-.98-.56-.04-.05.04-.81-.42-1.12.87-.14.83-.32,1.53.28Z"/><path class="cls-25" d="M145.79,12.71c.41-.02.94.76,1.81.42-.15,1.76-2.7,1.42-3.9.56-.12-.28,1.97-.97,2.09-.98Z"/><path class="cls-24" d="M131.7,18.29c-.04-.43-.63-.63-.84-.84-.12-.12-1.15-1.16-.7-1.39l2.93,1.25c.03,1-1.27.89-1.39.98Z"/><path class="cls-3" d="M130.87,17.45c.21.21.79.4.84.84-.07.05.14.73-.14.84-.88.35-5.42-.8-3.07-2.51-.24,1.77,2.25,2.9,2.37.84Z"/><path class="cls-25" d="M122.64,29.44c1.86-.25-1.12,4.26-1.81.98.46,0,1.71-.96,1.81-.98Z"/><path class="cls-6" d="M144.39,9.92c.69-.83,1.95,1.1.28,1.95-.04-.53-.62-1.54-.28-1.95Z"/><path class="cls-22" d="M19.61,57.61c.61.13.53.27.56.28,2.28,1.28,4.18,4.59,6.27,5.86,4.97,3.01,18.16.93,23.84-.28.29,1.25-1.76,3.45-2.23,5.02-7.99,2.05-19.83,6.31-28.02,4.74-1.6-.31-2.7-1.23-4.04-1.95,0-1.64-3.81-5.1-5.3-5.86-3.18-1.62-4.83-.38-8.09.56.78-8.35,10.04-9.89,17.01-8.37Z"/><path class="cls-20" d="M19.61,57.61c-6.97-1.52-16.23.01-17.01,8.37,0,.09,0,.19,0,.28-.27,5.07.55,7.15,4.46,10.04.91.67,1.16.79,2.23,1.25-.51,1.44-2.31,1.98-.28,2.51-6.28,5.09-2.04,11.9,5.16,12.13,5.1.16,4.79-2.23,6.55-5.58.24-.45.58-.92.84-1.39,2.24.43-1.17,4.69.14,4.74,1.42-1.7,2.42-3.35,4.46-4.46,1.56-.85,9.93-2.96,10.32-3.35.4-.41-.94-.09-.7-.7l.98-1.25,15.75-2.51c-.46,1.07-1.3,2.02-1.67,3.07-6.43,1.17-15.33,2.37-20.91,5.86s-7.62,11.67-15.48,10.6c-3.24-.44-9.54-5.66-9.62-9.34l-1.12.42h-.28c.44-3.38,2.17-6.25,3.9-9.06-7.78-3.53-10.33-14.65-2.93-19.94,3.33-2.38,10.25-3.13,14.22-2.51.06,0,.56.8.98.84Z"/><path class="cls-15" d="M50.28,82.7c-.05.65-.1,1.37.28,1.95-3.24-.53-13.12,2.26-16.03,4.18-5.53,3.66-6.48,10.16-12.41,13.11-3.67.08-5.06,1.04-9.2,0-6.28-1.58-10.33-7.21-9.48-13.66h.28c-.3,5.55,5.53,11.82,11.01,12.55,12.43,1.66,10.97-8.91,19.1-13.66,4.64-2.71,11.21-3.57,16.45-4.46Z"/><path class="cls-22" d="M49.17,61.79c.11.49.81,1.05.84,1.12.08.24.22.32.28.56-5.68,1.21-18.87,3.28-23.84.28-2.1-1.27-3.99-4.57-6.27-5.86,3.61,1.04,6,4.55,9.62,5.3,5.71,1.18,13.58-.87,19.38-1.39Z"/><path class="cls-21" d="M10.69,65.41c-.49-.12-1.32.55-1.39.56-2.75.4-5.44-.28-5.44,3.62-1.02-.61.22-3.04-1.25-3.35,0-.09,0-.19,0-.28,3.25-.94,4.9-2.18,8.09-.56Z"/><path class="cls-22" d="M10.69,65.41c1.49.76,5.29,4.22,5.3,5.86-1.5-.81-2.91-1.65-4.18-2.79-.85-.76-1.46-1.93-2.51-2.51.07-.01.9-.68,1.39-.56Z"/><path class="cls-8" d="M33.83,87.16c-8.13,4.75-6.67,15.32-19.1,13.66-5.48-.73-11.32-7-11.01-12.55l1.12-.42c.08,3.68,6.38,8.9,9.62,9.34,7.86,1.07,10.03-7.19,15.48-10.6-.18,1.23-2.73,2.62-2.93,3.62-.66,3.38,6.13-6.08,6.83-3.07Z"/><path class="cls-20" d="M52.51,77.68l-15.75,2.51-.98,1.25c-.24.61,1.1.29.7.7-.38.38-8.76,2.5-10.32,3.35-2.04,1.11-3.04,2.76-4.46,4.46-1.31-.05,2.1-4.31-.14-4.74.59-1.11.84-2.8,1.67-3.76,2.52-2.93,7.67-1.52,11.01-1.81l18.4-3.9c-1.33-2-4.23-1.6-4.88-4.18.97.57,5.65,2.55,5.86,3.49.19.86-.82,1.96-1.12,2.65Z"/><path class="cls-21" d="M9.29,65.97c1.05.58,1.66,1.75,2.51,2.51l-2.23-.14c1.73,1.4,3.1,3.25,4.88,4.6,1.04.79,3.08.64,3.21,2.37-2.44.45-3.59,1.61-5.3,3.21-.36-2.6-2.73-2.85-4.32-4.74-1.65.16.64,1.55-.98,2.51-3.91-2.89-4.73-4.97-4.46-10.04,1.47.31.24,2.73,1.25,3.35,0-3.91,2.68-3.23,5.44-3.62Z"/><path class="cls-20" d="M12.36,78.52c-1.03.96-4.6,5.31-4.74,6.55-.47,4.33,6.1,6.44,9.34,5.16,1.33-.53,2.45-3.86,3.76-3.62-1.76,3.35-1.46,5.74-6.55,5.58-7.2-.23-11.43-7.04-5.16-12.13-2.04-.53-.23-1.07.28-2.51-1.07-.47-1.32-.58-2.23-1.25,1.62-.96-.67-2.35.98-2.51,1.59,1.89,3.96,2.14,4.32,4.74Z"/><path class="cls-20" d="M50.84,80.75c-.26.71-.49,1.15-.56,1.95-5.24.89-11.81,1.75-16.45,4.46-.7-3.01-7.49,6.45-6.83,3.07.2-1.01,2.74-2.39,2.93-3.62,5.58-3.48,14.49-4.68,20.91-5.86Z"/><path class="cls-21" d="M11.8,68.48c1.27,1.14,2.68,1.98,4.18,2.79,1.35.73,2.44,1.64,4.04,1.95,8.2,1.57,20.03-2.69,28.02-4.74-.36,1.19-.6,1.8-.28,3.07.65,2.58,3.55,2.18,4.88,4.18l-18.4,3.9c-3.34.3-8.49-1.12-11.01,1.81-.83.96-1.08,2.66-1.67,3.76-.25.47-.6.94-.84,1.39-1.31-.24-2.43,3.1-3.76,3.62-3.24,1.28-9.81-.83-9.34-5.16.14-1.24,3.71-5.59,4.74-6.55,1.71-1.6,2.86-2.76,5.3-3.21-.13-1.73-2.16-1.58-3.21-2.37-1.78-1.35-3.15-3.2-4.88-4.6l2.23.14Z"/><path class="cls-22" d="M16.96,79.36c4.3-.23-.66,7.77-1.95,7.53-1.07-.2-.43-2.75-3.35-1.39-1.96-.93,3.59-6.04,5.3-6.13Z"/><path class="cls-2" d="M198.07,35.58c-1.01-2.02-.31-3.19-2.79-2.23-.64-1.58-1.53-3.18-2.23-4.74-2.4-5.33-10.67-23.09-16.87-23.7-6.66-.66-10.7,14.46-11.85,19.66-3.51,15.85.87,28.93,7.53,43.08,2.48,5.27,5.33,10.83,8.64,15.62l-.84,1.95c-1.57-2.16-5.51-9.2-6.69-10.32-7.26-12.81-13.74-28.31-12.55-43.36.39-4.92,6.87-26.23,10.46-28.86,8.27-6.07,16.15,8.14,19.38,14.08,3.14,5.77,5.93,12.54,7.81,18.82Z"/><path class="cls-7" d="M198.07,35.58c6.04,12.06,8.7,41.62,4.46,54.23-1,2.96-2.85,6.36-6.13,7.11-7.8,1.77-12.92-6.47-16.73-11.71l.84-1.95c9.18,13.26,19.23,18.67,22.03-2.37,2.06-15.48-1.49-33.2-7.25-47.54,2.48-.96,1.78.21,2.79,2.23Z"/><path class="cls-12" d="M193.05,28.61c-.44,1.38,1.89,3.23.84,4.46-2.5-6.07-7.49-16.35-12.69-20.36-3.23-2.48-6.54-4.11-9.34-.14-3.95,5.6-7.98,24.2-7.25,30.95.46,4.22,6.68,20.74,8.09,23.56l-.84.56c-6.66-14.15-11.04-27.23-7.53-43.08,1.15-5.2,5.19-20.32,11.85-19.66,6.2.61,14.47,18.37,16.87,23.7Z"/><path class="cls-12" d="M195.28,33.35c5.76,14.35,9.31,32.06,7.25,47.54-2.8,21.04-12.85,15.63-22.03,2.37-3.31-4.78-6.17-10.35-8.64-15.62l.84-.56c2.85,5.73,14.04,23.94,19.94,25.65,6.89,1.99,8.35-10.87,8.78-15.48,1.44-15.23-1.78-30.25-7.53-44.2,1.05-1.24-1.28-3.08-.84-4.46.7,1.56,1.6,3.16,2.23,4.74Z"/><path class="cls-16" d="M193.89,33.07c5.75,13.95,8.97,28.97,7.53,44.2-.44,4.6-1.9,17.47-8.78,15.48-5.9-1.71-17.09-19.93-19.94-25.65-1.4-2.82-7.63-19.34-8.09-23.56-.73-6.76,3.3-25.35,7.25-30.95,2.8-3.97,6.11-2.34,9.34.14,5.2,4.01,10.19,14.29,12.69,20.36Z"/><path class="cls-2" d="M173.67,15.78c6.3-1.15,13.15,10.33,15.75,15.2,5.94,11.12,14.01,44.57,8.09,55.49-3.72,6.86-11.18-1.45-13.94-4.74-12.71-15.15-20.68-38.33-15.2-57.86.13-.47-.18-.15-.42-.42,1.7-2.18,2.45-7.07,5.72-7.67Z"/><path class="cls-12" d="M173.67,16.62c4.86-1.08,9.16,5.52,11.57,9.06,9.73,14.27,14.54,36.37,13.11,53.54-1.45,17.3-11.39,5.9-16.73-1.39-9.73-13.31-15.63-30.15-13.94-46.85.32-3.19,2.38-13.56,6-14.36Z"/><path class="cls-19" d="M181.48,46.45c6.34-1.87,11.29,16.15,5.86,17.29-6.11,1.28-10.11-16.03-5.86-17.29Z"/><path class="cls-7" d="M181.76,47.57c.98-.33,2.49-.02,2.93.98-3.77-1.43-3.34.28-3.76,3.49-1.16-.8.01-4.18.84-4.46Z"/><path class="cls-2" d="M183.71,55.93l1.67,4.18c-.51.25-2.47-3.47-1.67-4.18Z"/><path class="cls-2" d="M182.04,50.64l.84,3.07c-.6.22-1.32-2.63-.84-3.07Z"/></g></g></svg>