<?xml version="1.0" encoding="UTF-8"?><svg id="Layer_2" xmlns="http://www.w3.org/2000/svg" viewBox="0 0 110.59 156.59"><defs><style>.cls-1{fill:#f2b398;}.cls-2{fill:#0f2008;}.cls-3{fill:#d7592e;}.cls-4{fill:#6b4222;}.cls-5{fill:#bcf28c;}.cls-6{fill:#f9d2bf;}.cls-7{fill:#449516;}.cls-8{fill:#7e4b2c;}.cls-9{fill:#10110e;}.cls-10{fill:#a93919;}.cls-11{fill:#4d2915;}.cls-12{fill:#8c351a;}.cls-13{fill:#f79271;}.cls-14{fill:#f17247;}.cls-15{fill:#6dba37;}.cls-16{fill:#427f1b;}.cls-17{fill:#0e150a;}</style></defs><g id="Layer_1-2"><g id="Generative_Object"><path class="cls-15" d="M95.16,3.52c-1.11,3.69-2.27,7.8-4.07,11.2-5.71,10.77-13.73,11.32-24.15,15.57.68-1.07,1.3-2.17,2.04-3.2l20.37-18.04c.27-.19,1.95-.76.73-1.16-11.86,6.68-22.87,16.01-28.37,28.81h-.29c-2.05-10.6,4.29-18.2,12.66-23.57,5.33-3.42,13.67-6.2,18.33-10.18.12-.1,1.15-.88.29-.87-.94.62-2.03,1.02-3.06,1.45v-.29c1.75-.77,3.46-1.92,5.24-2.62.76.98.33,1.71.29,2.91Z"/><path class="cls-7" d="M62.57,38.15c1.55-2.87,2.56-5.01,4.36-7.86,10.42-4.25,18.44-4.8,24.15-15.57,1.81-3.41,2.97-7.52,4.07-11.2-.41,13.51-8.96,26.13-21.39,31.43l-11.2,3.2Z"/><path class="cls-5" d="M61.41,36.69c-6.75-16.29,16.04-28.07,28.23-33.17,1.03-.43,2.11-.84,3.06-1.45.86,0-.17.77-.29.87-4.67,3.99-13,6.76-18.33,10.18-8.37,5.37-14.7,12.98-12.66,23.57Z"/><path class="cls-2" d="M89.34,9.05c-8.96,6.18-13.78,8.81-20.37,18.04-.74,1.03-1.36,2.13-2.04,3.2-1.8,2.84-2.81,4.99-4.36,7.86-.03.05-.9.14-.87.73.01.27.86.03.87.29,0,.15-1.87,1.85-2.04,2.33-.53-1.72.49-3.22,1.16-4.8,5.5-12.8,16.52-22.13,28.37-28.81,1.22.4-.46.98-.73,1.16Z"/><path class="cls-7" d="M68.97,27.09c6.59-9.23,11.41-11.86,20.37-18.04l-20.37,18.04Z"/><path class="cls-17" d="M90.8,125.15c-.62,4.15-2.27,18.53-3.78,21.39-3.21,6.08-20.41,9.85-26.77,10.04-7.19.22-26.81-3.01-30.55-10.04-1.07-2-2.41-12.16-2.91-15.13-1.2-7.13-1.85-14.38-2.91-21.53-1.5-1.57-4.88-2.79-5.53-4.95-.94-3.09-.93-21.05.29-23.86,2.52-5.83,15.99-9.06,21.53-10.77-.82-.62-4.13-4.51-4.8-4.51-.25,0-3.45,2.3-4.36,2.62-8.86,3.15-16.68-1.02-23.57-6.4C6.52,61.3.07,55.39,0,54.88c-.1-.87.99-1.07,1.6-1.31,8.25-3.24,22.36-3.04,29.39,2.91,2.78,2.36,4.02,5.78,6.11,7.86,1.71,1.7,5.84,3.53,7.57,5.82l7.13-1.02c.11-2.2-5.16-16.72-6.26-17.02-19.43,1.84-40.43-15.32-40.3-35.36.24-.59,6.25.55,7.13.73,10.87,2.17,28.85,9.55,33.32,20.52,2.17,5.32.62,8.48,1.45,12.51.21,1,3.38,5.98,4.07,7.57.87,2,1.2,4.29,2.18,6.26.9-4.78,1.49-9.69,2.76-14.4.67-2.47,4.23-10.09,4.36-11.35s-1.32-4.51-1.45-6.11c-1.38-16.96,18.15-23.77,30.55-29.25v.29c-12.19,5.1-34.97,16.88-28.23,33.17h.29c-.68,1.58-1.69,3.09-1.16,4.8.17-.48,2.04-2.17,2.04-2.33-.01-.27-.86-.03-.87-.29-.03-.58.85-.68.87-.73l11.2-3.2c12.43-5.3,20.98-17.92,21.39-31.43.04-1.2.47-1.93-.29-2.91.04-.02.27-.75.73-.58,1.99,16.39-7.88,30.61-22.99,36.67-2.59,1.04-9.12,1.89-10.62,3.93-1,1.35-3.33,10.65-3.78,12.8-.38,1.83-2.56,15.1-1.89,15.57l10.48.29c1.04-3.17,6.98-7.94,8-10.33.68-1.58.75-5.08,1.75-7.27,4.73-10.45,21.47-10.27,31.28-13.24.63-.19,2.33-1.8,2.76-.73-.55,9.47-11.93,24.38-21.68,24.88-3.07.16-10.59-2.04-12.51-1.45-.85.26-6.57,8.27-5.82,8.73,6.68.29,24.56,4.78,27.21,11.49,1.15,2.92,1.04,19.37.29,22.7s-3.16,3.61-5.53,5.53c-.69,5.16-.97,10.42-1.75,15.57Z"/><path class="cls-15" d="M109.13,40.77c-4.55,6.4-8.8,16.77-18.19,16l-9.75-1.16c6.96-7.04,10.67-6.04,18.19-10.18.09-.05,2.25-1.25,1.45-1.45-8.45,3.88-16.99,6.31-24.01,12.8,1.16-1.62,1.69-4.05,2.91-5.67,4.68-6.22,15.51-7.47,22.55-9.46.16-.04,2.23-.59,1.6-1.16,1.84-.44,3.74-.74,5.38-1.75.45.36-.05,1.52-.15,2.04Z"/><path class="cls-15" d="M6.7,17.49c.02.19-.04.43,0,.58.26.94,5.03,4.21,6.11,4.95.97.66,1.91,1.42,2.91,2.04-.19.92.69,1.29,1.31,1.75,8.05,5.97,18.85,9.23,24.3,18.77l-19.93-5.67c-4.46-1.93-9.33-8.75-11.79-12.95-1.09-1.87-1.9-4.96-3.49-5.97-.17-1.08-.28-2.25-.29-3.35.47-.81.83-.14.87-.15Z"/><path class="cls-7" d="M15.72,25.05c2.08,1.29,5.09,2.22,7.13,3.49,9.38,5.84,17.98,12.13,22.41,22.7-16.62,1.55-36.48-13.76-39.14-30.26,1.59,1,2.4,4.1,3.49,5.97,2.45,4.2,7.32,11.02,11.79,12.95l19.93,5.67c-5.45-9.54-16.25-12.8-24.3-18.77-.61-.46-1.5-.82-1.31-1.75Z"/><path class="cls-15" d="M32.02,58.81c.76.83,3.01,2.86,2.47,4.07-5.92-3.3-12.34-6.2-19.21-6.69l7.57,2.04c2.13,1,4.2,2.04,6.26,3.2-6.01,4.75-11.18,3.22-17.31,0-2.46-1.29-5.35-3.99-7.71-5.09-.97-.45-.07.4-.58.44-.54-.6-1.41-.97-1.75-1.89.3-.13.58-.32.87-.44,10.26.23,20.6-2.45,29.39,4.36Z"/><path class="cls-15" d="M45.69,44.84l-8.73-7.27c-7.47-7.17-16-9.46-24.15-14.84-1.79-1.18-3.89-2.93-5.24-4.66,13.45,3,35.48,11.8,38.12,26.77Z"/><path class="cls-7" d="M109.13,40.77c-1.13,6.3-11.76,19.39-18.19,20.37-4.24.65-9.17-.69-13.39-1.16-.63-.58,3.26-3.98,3.64-4.36l9.75,1.16c9.39.77,13.64-9.6,18.19-16Z"/><path class="cls-7" d="M29.11,61.43c1.89,1.06,3.75,2.09,5.53,3.35-9.73,8.52-23.89-.04-31.14-8,.51-.04-.38-.89.58-.44,2.36,1.1,5.25,3.8,7.71,5.09,6.13,3.22,11.3,4.75,17.31,0Z"/><path class="cls-5" d="M46.57,47.75c-.72-.67-.71-1.98-.87-2.91-2.64-14.97-24.67-23.78-38.12-26.77-.27-.06-.59.04-.87,0-.04-.15.02-.4,0-.58,12.61-.47,42.04,14.4,39.87,30.26Z"/><path class="cls-15" d="M46.71,51.53c4.35,7.61,7.36,16.89,9.17,25.46.21,1.02,1.56,7.47,1.45,7.86-.17.59-2.05.76-2.47,1.31-.68-.15-1.08-12.23-1.31-13.82-1.06-7.35-4.02-14.02-6.84-20.81Z"/><path class="cls-5" d="M76.83,56.77c-.23.32-.4.64-.73.87,1.3-14.05,16.99-14.61,27.79-17.17.63.58-1.44,1.12-1.6,1.16-7.04,1.99-17.87,3.24-22.55,9.46-1.22,1.62-1.75,4.05-2.91,5.67Z"/><path class="cls-15" d="M51.22,86.45c-.55-1.03-.43-3.09-1.75-3.49-2.64-7.1-7.61-13.11-13.39-17.9,4.47,2.27,9.03,7.01,11.93,11.06.6.84,4.83,7.69,4.95,8.15.15.6-.11,1.65,0,2.33-.3.74-1.48-.07-1.75-.15Z"/><path class="cls-5" d="M32.02,58.81c-8.8-6.82-19.13-4.13-29.39-4.36,8.86-3.59,22.61-3.04,29.39,4.36Z"/><path class="cls-15" d="M76.39,58.81c.7-.15-.08.92-.15,1.02-2.86,4.34-6.84,8.17-9.6,13.09-1.03,1.84-4.77,11.21-5.24,11.64-.55.5-2.39.65-2.76.44-.83-.47,3.22-5.26,3.64-5.97,4.24-7.09,8.11-14.36,14.11-20.22Z"/><path class="cls-7" d="M60.1,41.93l-5.24,27.64c-2.36,0,3.36-25.73,5.24-27.64Z"/><path class="cls-7" d="M45.69,44.84c.16.93.15,2.24.87,2.91-.04.29.08,1.28-.58,1.02-2.68-3.84-5.64-7.96-9.02-11.2l8.73,7.27Z"/><path class="cls-4" d="M57.19,76.85l4.51.44c-3.44,9.75-5.53-.03-4.51-.44Z"/><path class="cls-8" d="M51.95,76.85c.45.06.7-.07,1.02.44.7,6.91-.66,4.21-2.91.29,0-.41,1.79-.74,1.89-.73Z"/><path class="cls-16" d="M7.57,18.07c1.35,1.72,3.45,3.47,5.24,4.66v.29c-1.08-.74-5.85-4.01-6.11-4.95.28.04.61-.06.87,0Z"/><path class="cls-16" d="M51.22,86.45c-.14-.04-.81.65-1.16.15-.11-.15-.35-3.01-.58-3.64,1.32.4,1.2,2.46,1.75,3.49Z"/><path class="cls-4" d="M57.77,81.8c.34-.12,1.69.07,1.6.44-.1.42-1.63.37-1.6-.44Z"/><path class="cls-1" d="M69.7,70.74c2.08-.56,15.47,3.24,18.04,4.36,18.66,8.17,5.3,16.99-6.98,20.37-14.72,4.04-42.26,3.95-55.58-4.07-12.97-7.82-1.91-14.75,7.27-17.75,2.08-.68,9.69-3.47,9.89-.29-7.85.88-26.01,8.01-12.22,16.3,12.04,7.24,47.36,7.93,58.2-1.45,11.13-9.64-13.2-15.42-19.5-15.42-.53-.31.48-1.93.87-2.04Z"/><path class="cls-4" d="M48.02,83.54c-7.48,3.26-1.63,5.41,3.06,6.11,3.47.52,28.29,1.04,17.46-5.82l15.42,5.24c-6.01-3.96-13.34-6-20.52-6.4.32-.87,1.83-4.99,2.47-5.24,2.9-1.11,22.58,4.09,23.43,7.13,1.11,3.99-14.98,8.12-17.9,8.58-12.65,2.02-26.74,1.02-38.7-3.49-.68-.8,7.76-4.62,8.73-4.95,1.5-.51,5.27-1.74,6.55-1.16Z"/><path class="cls-3" d="M76.25,115.26c-.9.21-1.83.15-2.62.29l.29-16.3c8.7-1.39,16.98-4.36,22.99-11.06.74,5.56.15,11.19-.29,16.73-5.58,4.48-13.38,8.73-20.37,10.33Z"/><path class="cls-13" d="M43.95,99.26l1.45,16.88c-.95-.09-1.97-.17-2.91-.29-.54-.07-1.18-.21-1.75-.29-3.51-1.35-7.22-2.09-10.48-4.07-.48-.29-1.36-1.59-2.62-1.6l.29-14.99c5.09,2.46,10.45,3.54,16,4.36Z"/><path class="cls-14" d="M30.56,112.93c.99,1.25,3.77,2.36,5.24,2.91l2.91,34.34c-1.48-.62-2.96-1.26-4.36-2.04-.32-.19-.74-.77-.87-.87l-5.53-35.5c.88.38,1.71.83,2.62,1.16Z"/><path class="cls-10" d="M91.09,113.81c-.28,1.82-.85,3.69-1.16,5.53-1.46,8.68-2.97,17.35-4.36,26.04-1.41,1.92-3.3,2.57-5.24,3.64l3.78-32.88c2.31-.77,4.57-2.02,6.98-2.33Z"/><path class="cls-6" d="M96.91,88.2c-6.01,6.69-14.29,9.67-22.99,11.06-3.27.52-6.02.7-9.31.87-7.12.37-13.61.18-20.66-.87-5.55-.83-10.91-1.91-16-4.36-2.36-1.14-4.43-2.92-6.69-4.22l-.29,15.28c-1.77-1.82-1.49-1.93-1.75-4.8-.37-4.12-.38-9.42.15-13.53,5.12,6.2,15.28,8.95,22.99,10.18,17.2,2.75,40.61,1.81,54.56-9.6Z"/><path class="cls-12" d="M91.09,113.81c-2.41.31-4.67,1.55-6.98,2.33-2.98,1-5.62,1.76-8.73,2.33-3.28.6-6.26.97-9.6,1.16-5.71.33-10.91.19-16.59-.58-4.51-.61-9.11-1.61-13.39-3.2-1.47-.55-4.24-1.66-5.24-2.91,3.71,1.38,6.49,2.06,10.18,2.62.57.09,1.2.22,1.75.29,11.09,3.28,22.93,2.3,34.05-.29,5.12-1.19,10.25-2.6,14.7-5.53.49.85,0,2.79-.15,3.78Z"/><path class="cls-4" d="M45.55,77.43c.27.08,2.78,4.75,2.33,5.24-2.52.54-5.18,1.07-7.57,2.04-1.41.57-7.96,4.36-8.44,4.36-.96,0-4.62-3.07-5.09-4.22.08-1.03,6.82-4.36,8-4.8s10.24-2.78,10.77-2.62Z"/><path class="cls-9" d="M34.34,148.14c1.41.77,2.88,1.41,4.36,2.04,3.27,1.38,6.39,2.75,9.89,3.49,5.52,1.17,10.7,1.43,16.3.58,2.73-.41,6.38-1.44,9.02-2.33,2.25-.76,4.32-1.76,6.4-2.91,1.94-1.07,3.82-1.72,5.24-3.64,1.4-8.69,2.9-17.37,4.36-26.04,1.1,1.09.31,2.45.29,2.76-.38,5.68-1.37,10.71-2.33,16-1.24,6.85.17,8.42-6.84,12.37-12.61,7.1-37.65,7.49-48.89-2.33-2.57-2.25-3.53-5.83-2.91-9.02,1.03,3.75.34,6.83,4.07,9.02.84.49.97-.02,1.02,0Z"/><path class="cls-11" d="M48.02,83.54c1.4,1.52,1.03,2.11-.29,3.06,5.45,3.09,8.52-1.11,14.4-.44,1.04.12,5.15,2.3,5.38.44.09-.69-4.31-1.03-5.24-1.75-.11-.17,1.08-1.95,1.16-2.18,7.17.41,14.5,2.45,20.52,6.4l-15.42-5.24c10.83,6.86-13.99,6.34-17.46,5.82-4.69-.7-10.54-2.85-3.06-6.11Z"/><path class="cls-13" d="M27.94,94.89l-.29,14.99c1.26.01,2.14,1.31,2.62,1.6-3.06-1.36-6.97-3.12-9.31-5.53l.29-15.28c2.26,1.3,4.33,3.08,6.69,4.22Z"/><path class="cls-6" d="M27.94,111.77l5.53,35.5c-1.56-1.15-1.97-1.03-2.62-3.06-1.58-4.93-5.52-27.06-5.82-32.3-.02-.38-.1-1.41.15-1.6.88.53,1.82,1.05,2.76,1.45Z"/><path class="cls-3" d="M67.95,73.65c1.73-.59,13.85,2.77,16,3.78,1.75.82,6.57,3.74,5.97,5.97l-.58.29c-6.47-4.95-14.94-6.09-22.84-7.13-.33-.36,1-2.75,1.45-2.91Z"/><path class="cls-3" d="M42.64,74.23c1.21.05,2.96,2.53,2.33,2.91-6.66.62-12.88,3.01-18.48,6.55-2.21-4.16,13.5-9.57,16.15-9.46Z"/><path class="cls-9" d="M76.25,115.26l.29.29c-11.12,2.59-22.96,3.57-34.05.29.94.12,1.96.2,2.91.29,6.13.56,12.76.87,18.91.58,3.13-.14,6.23-.63,9.31-1.16.79-.14,1.72-.08,2.62-.29Z"/><path class="cls-3" d="M56.31,73.07c1.23.16,7.5-.47,7.71.73-.49.4-1.21,2.32-1.6,2.47-.27.1-5.58.17-5.82,0-.13-.09-.82-2.99-.29-3.2Z"/><path class="cls-1" d="M56.02,70.16c.4-.28,9.65-.03,9.75.73.31,2.36-8.03.93-9.75,1.31-.24-.17-.24-1.87,0-2.04Z"/><path class="cls-3" d="M49.62,73.36c3.13-.41,2.9-.02,3.35,2.76-3.08.85-3.58.52-5.24-2.04.05-.44,1.56-.68,1.89-.73Z"/><path class="cls-1" d="M49.04,70.45c2.01-.04,3.08-.63,3.35,1.6-2.4.19-5.81,1.78-6.98-.87.06-.17,3.27-.72,3.64-.73Z"/><path class="cls-3" d="M73.92,99.26l-.29,16.3c-3.08.54-6.18,1.02-9.31,1.16l.29-16.59c3.3-.17,6.04-.35,9.31-.87Z"/><path class="cls-14" d="M64.61,100.13l-.29,16.59c-6.15.28-12.78-.02-18.91-.58l-1.45-16.88c7.05,1.05,13.54,1.25,20.66.87Z"/><path class="cls-13" d="M49.19,119.04l-.58,34.63c-3.51-.74-6.62-2.11-9.89-3.49l-2.91-34.34c4.28,1.59,8.88,2.59,13.39,3.2Z"/><path class="cls-3" d="M84.11,116.13l-3.78,32.88c-2.08,1.14-4.15,2.15-6.4,2.91l1.45-33.46c3.11-.57,5.75-1.33,8.73-2.33Z"/><path class="cls-14" d="M65.77,119.63l-.87,34.63c-5.6.84-10.78.59-16.3-.58l.58-34.63c5.68.77,10.88.91,16.59.58Z"/><path class="cls-3" d="M75.38,118.46l-1.45,33.46c-2.64.89-6.29,1.92-9.02,2.33l.87-34.63c3.34-.19,6.32-.56,9.6-1.16Z"/></g></g></svg>