<?xml version="1.0" encoding="UTF-8"?><svg id="Layer_2" xmlns="http://www.w3.org/2000/svg" viewBox="0 0 167.92 77.36"><defs><style>.cls-1{fill:#515463;}.cls-2{fill:#bfc1cc;}.cls-3{fill:#9295a5;}.cls-4{fill:#fbde66;}.cls-5{fill:#b08e3d;}.cls-6{fill:#fefefe;}.cls-7{fill:#6e7281;}.cls-8{fill:#d7dbe4;}.cls-9{fill:#383a43;}.cls-10{fill:#606373;}.cls-11{fill:#a7abba;}</style></defs><g id="Layer_1-2"><g id="Generative_Object"><path class="cls-9" d="M82.49,0h2.77c25.59,7.88,52.69,13.43,78.07,21.74,2.26.74,6.76,2,3.36,4.82l-36.56,11.16v17.22c-1.02,2.25-3.17,3.52-5.25,4.67l.44,17.07c-.34.81-6.8.99-7.73,0l-.07-14.23c-15.5,4.5-32.96,5.63-49.03,3.79-5.98-.68-27.92-4.63-30.43-10.43-.82-2.06.22-17.63-.51-18.31L1.79,26.85c-2.3-1.08-2.37-2.68-.29-4.09L82.49,0Z"/><path class="cls-10" d="M120.07,44.65c.02,1.08.42,6,.15,6.64-.05.12-1.41.67-1.61,1.9-.27,1.7.84,2.19.88,2.48.01.11-.56.81-.58.88-.18.61-.94,3.62-1.24,3.87-14.19,4.14-29.53,5.38-44.29,4.23l.15-12.7c3.9,1.04,8.8,2.94,12.77,2.33l33.78-9.63Z"/><path class="cls-7" d="M73.51,51.95l-.15,12.7c-8.46-.66-17.13-2.11-25.1-4.96v-14.88c8.46,2.19,16.81,4.89,25.25,7.15Z"/><path class="cls-10" d="M120.07,44.65l-33.78,9.63c-3.97.6-8.86-1.29-12.77-2.33-8.44-2.26-16.78-4.96-25.25-7.15v-4.09c11.86,3.42,23.64,7.19,35.53,10.51l36.19-10.65c.54.19.06,3.54.07,4.09Z"/><path class="cls-11" d="M48.27,44.65v15.03c-1.76-.63-8.13-2.99-8.61-4.89s-.04-10.04,0-12.48l8.61,2.33Z"/><path class="cls-7" d="M128.24,42.32c.07,4.15-.05,8.32,0,12.48-1.05,1.28-2.48,2-3.87,2.85-.16,0-.81-1.72-.8-1.82.02-.3,1.23-1.14.88-2.77-.15-.68-1.38-1.48-1.46-1.75-.36-1.24.11-6.06.15-7.66l5.11-1.31Z"/><path class="cls-3" d="M48.27,40.71v3.94l-8.61-2.33c.01-.59-.16-3.94.22-4.09,2.78.89,5.59,1.67,8.39,2.48Z"/><path class="cls-1" d="M128.24,42.32l-5.11,1.31c.01-.68-.37-3.41-.15-3.87l5.25-1.46c.02,1.34-.02,2.68,0,4.01Z"/><path class="cls-11" d="M26.09,31.81c.33-.55-.37-.73.15-1.02,18.91,5.7,37.93,11.06,56.84,16.78.95.09,1.85-.11,2.77-.29,10.69-2.09,23.05-8.32,33.56-10.07.63-.11,1.21-.12.8.8l-35.39,10.73h-1.75c-18.94-5.81-38-11.26-56.99-16.93Z"/><path class="cls-11" d="M122.98,33.71c-.11-1.24.41-2.03-.95-2.77l-31.23-10.51c-1.29-4.84-15.1-4.41-13.79,1.17-1.39,1.59.72,2.87,2.12,3.36,2.74.96,6.36.8,9.05-.29l29.84,10.65c-11.49,3.39-23.05,6.74-34.66,9.63-24.9-6.96-49.59-14.62-74.57-21.31,24.54-7.35,49.44-13.99,74.13-21.01h2.04l74.13,20.72-36.12,10.36Z"/><path class="cls-8" d="M141.23,31.96c.17-.6.56-.56-.15-1.02,6.25-1.88,15.02-3.87,20.8-6.28.05-.02.29-.22.15-.29-13.24,2.33-26.06,7.11-39.04,10.29-.02-.31.03-.64,0-.95l36.12-10.36L84.97,2.63h-2.04c-24.69,7.02-49.59,13.66-74.13,21.01,24.98,6.69,49.67,14.34,74.57,21.31,11.61-2.89,23.17-6.24,34.66-9.63.74-.22,1.47-.47,2.19-.73.07.65.15,1.15-.51,1.31-11.03,2.26-22.74,7.6-33.71,9.49-3.89.67-10.17-1.55-14.16-2.63-19.78-5.32-39.82-12.63-59.69-17.22-1.84-.42-4.03-.89-5.84-.88,6.66,1.97,13.27,4.13,19.92,6.13-.52.29.19.47-.15,1.02-7.08-2.11-15.82-4.13-22.55-6.71-.18-.07-1.23-.4-1.02-.73L82.34,1.75l2.19-.15c27,7.41,53.99,14.85,80.85,22.77l.15.29c-8.09,2.43-16.19,4.92-24.3,7.3Z"/><path class="cls-3" d="M120.21,34.59c-.72.26-1.45.51-2.19.73l-29.84-10.65c-2.68,1.09-6.31,1.25-9.05.29-1.39-.49-3.51-1.77-2.12-3.36.95,4.02,9.74,3.6,12.62,1.9l30.5,10.36c.15.16.05.51.07.73Z"/><path class="cls-11" d="M141.08,30.94c.7.46.32.42.15,1.02-4.5,1.31-13.17,4.59-17.29,5.11-.86.11-1.01.32-.95-.8,5.94-1.98,12.08-3.52,18.1-5.33Z"/><path class="cls-4" d="M121.53,61.73c0-.22.05-1.9-.07-1.9-.14.62-.06,1.27-.07,1.9-.08,4.96-.04,9.94-.36,14.88l-.95-.22c-.14-4.54-.02-9.11-.15-13.64,0-.2.05-1.31-.07-1.31-.14.42-.06.88-.07,1.31-.12,4.5-.21,9-.29,13.5h-1.02c.37-4.84-.37-10.59.15-15.32.04-.38.53-2.59.8-2.7h4.09l.66,1.53c.02,1.9.88,16.06.22,16.56-.16.12-.86.11-.95-.22l-.36-13.5-.22,13.79c-.38.43-.89.25-1.17-.15-.16-4.84-.07-9.68-.15-14.52Z"/><path class="cls-4" d="M90.81,21.31l30.94,10.51.36.36v18.68h-1.02l-.07-17.58-30.65-10.36c-.52-.13.32-1.58.44-1.61Z"/><path class="cls-4" d="M122.98,52.54c2.66,2.58-3.02,4.19-3.5,1.75.53-1.66,1.86-2.27,3.5-1.75Z"/><path class="cls-4" d="M120.43,56.04c.65-.16,2.94,0,2.99,1.09-.47.88-3.75.83-3.79,0,0-.1.64-1.06.8-1.09Z"/><path class="cls-6" d="M122.98,52.54c-1.64-.52-2.97.09-3.5,1.75-.41-2.05,2.05-3.16,3.5-1.75Z"/><path class="cls-5" d="M121.53,61.73h-.15c0-.63-.07-1.28.07-1.9.12,0,.07,1.67.07,1.9Z"/><path class="cls-5" d="M119.92,62.75h-.15c.01-.43-.07-.9.07-1.31.12,0,.07,1.12.07,1.31Z"/><path class="cls-6" d="M82.93,18.68c1.23-.07,6.73.26,6.49,2.26-.27,2.28-10.07,2.48-11.09.29-.83-1.78,3.52-2.49,4.6-2.55Z"/><path class="cls-2" d="M79.86,20.72c1.66.62,3.48.9,5.25.73.49-.05,2.94-.98,2.99-.51-1.09,1.49-7.1,1.38-8.1.36-.18-.18-.35-.31-.15-.58Z"/></g></g></svg>