<?xml version="1.0" encoding="UTF-8"?><svg id="Layer_2" xmlns="http://www.w3.org/2000/svg" viewBox="0 0 229.03 128.67"><defs><style>.cls-1{fill:#51525c;}.cls-2{fill:#f3800e;}.cls-3{fill:#424548;}.cls-4{fill:#7dbcba;}.cls-5{fill:#5e5556;}.cls-6{fill:#6b6562;}.cls-7{fill:#628f9f;}.cls-8{fill:#c6c7c8;}.cls-9{fill:#123541;}.cls-10{fill:#a2a2a0;}.cls-11{fill:#52828a;}.cls-12{fill:#2d4461;}.cls-13{fill:#2c2a28;}.cls-14{fill:#739194;}.cls-15{fill:#9adfe4;}.cls-16{fill:#747370;}.cls-17{fill:#dfe6e7;}.cls-18{fill:#8a888e;}.cls-19{fill:#3b383f;}.cls-20{fill:#224357;}.cls-21{fill:#316d7c;}.cls-22{fill:#403a38;}.cls-23{fill:#9da0aa;}.cls-24{fill:#872b04;}.cls-25{fill:#94c2ca;}.cls-26{fill:#eee8ef;}.cls-27{fill:#fcaa67;}.cls-28{fill:#828482;}.cls-29{fill:#665f6e;}.cls-30{fill:#466573;}.cls-31{fill:#c9e1e7;}.cls-32{fill:#7f8e92;}.cls-33{fill:#3c2719;}.cls-34{fill:#105460;}.cls-35{fill:#3b3042;}.cls-36{fill:#3b4951;}.cls-37{fill:#5b6b75;}.cls-38{fill:#b1d9dd;}.cls-39{fill:#9aa9b6;}.cls-40{fill:#636871;}.cls-41{fill:#fefdfe;}.cls-42{fill:#1b1a1a;}.cls-43{fill:#3e5f77;}.cls-44{fill:#8aa6ad;}</style></defs><g id="Layer_1-2"><g id="Generative_Object"><path class="cls-24" d="M89.58,24.65c-.35.63.03,1.8.27,2.4.09.24.23,1.15.27,1.2,1.09,1.35,30.1,4.09,34.26,4.67,4.44.61,20.52,2.43,23.06,3.73-10,9-19.62,19.65-30.13,27.99-4.63,3.68-8.83,6.47-14.93,6.8-4.13-14.37-8.83-28.58-13.06-42.92-1.12-3.8.47-5.81-5.47-5.47l-.13,1.07c4.79,16.06,9.14,32.26,14.13,48.25.61,1.97.88,4.22,1.6,6.13.28.75.27,1.73,1.07,2.13-.17.49-1.47,0-1.6,0l-12.4-45.05-9.46,12.93c10.06,8.24,16.07,19.62,19.19,32.12-.69-.04-.76-.26-.8-.27-1.5-5.6-3.28-11.33-6.13-16.4-.28-.5-.78-.36-.8-.4-2.55-4.36-5.03-8.61-8.93-12-2.23-1.93-2.39-3.07-4.13-.53-.21.3-1.14,1.01-1.07,1.47s5.8,5.29,6.93,6.66c5.02,6.09,8.06,13.29,9.86,20.93v.27c-.35-.02-.72.04-1.07,0-1.05-10.68-7.7-20.41-15.86-27.19-.72-.08-1.15,1.21-1.47,1.6-.64.78-1.05,1.69-1.6,2.4-.27.35-.42.65-.53.8-.01.01-.1.05-.27.27-.21.28-.34.55-.53.8-4.93,6.53-10.14,12.89-14.66,19.73-.39-.03-.48-.09-.8-.27l31.72-43.59c.12-.56-.2-.95-.27-1.47-.05-.36-1-3.72-1.2-3.73-1.1,3.56-3.5,5.89-5.47,8.8l-.53-.53c1.05-.87,2.82-3.01,3.47-4.13,2.29-3.95,2.4-5.11,1.33-9.33-.23-.92-.49-.71-.8-2.27.91-.18,5.24.96,5.47.8,2.54-1.83-4.38-2.76-5.47-1.07-.08-.75-1.65-1.51.8-2.13-.01.4.32.22.53.27.2.05.87.05,1.07,0-.39.15-.9.51-1.33.67.17.35,3.47-.18,3.73-1.07-.47-.05-2.05.27-2.4.4.06-.01.73-.66,1.07-.8.6-.25.86.19,1.07-.27.02.04.6-.5.8.13.16.52-.39.82-.27,1.07.57,1.17,1.41,3.93,1.87,4.4Z"/><path class="cls-2" d="M82.64,22.25c-.02-.08,0-.18,0-.27,1.09-1.7,8.01-.77,5.47,1.07-.22.16-4.56-.98-5.47-.8Z"/><path class="cls-41" d="M90.51,29.18l55.59,7.86-31.59,29.19c-3.33,2.72-7.41,3.65-11.46,4.8l-12.53-41.86Z"/><path class="cls-44" d="M85.04,20.12c.35-.13,1.93-.45,2.4-.4-.27.88-3.56,1.42-3.73,1.07.43-.16.94-.52,1.33-.67Z"/><path class="cls-27" d="M89.84,24.92s-.11.43.13.53c18.51,2.11,36.91,4.93,55.32,7.73-1.08,1.75-3.61.17-5.2,0-3.71-.41-7.48-.48-11.2-.8l-39.06-5.33c-.23-.6-.61-1.77-.27-2.4.06.06.25.26.27.27Z"/><path class="cls-24" d="M36.52,40.38c.45.05.4-.1.8.27-15.56,3.44-31.79,17.78-35.99,33.32-.34,1.26-.6,2.05,1.2,2.13,2.65.13,4.63-7.12,6-9.46,6.31-10.83,17.69-19.95,30.13-22.26.04.13-.04.39,0,.53-12.19,2.53-23.4,11.32-29.59,21.99-.83,1.43-4.02,9.23-4.53,9.6-.71.5-4.39-.35-4.53-.8,4.16-13,13.04-24.56,25.19-31.06,1.87-1,9.62-4.47,11.33-4.27Z"/><path class="cls-2" d="M117.3,64.64c.5,1.38-4.33,5.15-.93,4,1.42-.48,14.16-12.39,16.26-14.4s15.28-14.83,15.6-16.4c.38-1.86-.72-1.16-.8-1.2-2.54-1.3-18.62-3.12-23.06-3.73-4.16-.57-33.17-3.32-34.26-4.67-.04-.05-.17-.96-.27-1.2l39.06,5.33c3.72.32,7.49.39,11.2.8,1.59.17,4.12,1.75,5.2,0,1.24.19,10.02.38,10.13,1.47l-35.32,32.66c-4.88,3.71-10.42,6.34-16.53,7.2l1.2,6.4c-.63-.07-1.27-.2-1.87-.27.77-2.51-2.3-5.15-2.53-1.6l-.93-.53c-.72-1.92-.99-4.17-1.6-6.13,4.33-.05,2.05-1.56,1.6-3.33-3.62-14.25-8.23-28.18-12-42.39-.46-1.01-2.29-3.41-3.73-2.53l.13-1.07c5.93-.34,4.34,1.67,5.47,5.47,4.24,14.34,8.93,28.55,13.06,42.92,6.1-.33,10.3-3.12,14.93-6.8Z"/><path class="cls-27" d="M155.69,35.85c.56,1.73-2.07,3.64-2.13,3.87-.12.44.79.89.8,1.07.1,1.38-1.33,3.15-2.13,4.27-5.07,7.02-26.69,33.44-32.52,38.12-1.22.98-1.39.82-2.93,1.2-.15-.15-.61-.38-.8-.53l36.52-44.25v-.8c.87-.78,1.97-2.09,2.67-3.07.41-.43.38-.03.53.13Z"/><path class="cls-27" d="M37.32,40.65c.18.17.88,2.42,1.07,2.93-10.83,1.74-23.01,10.22-29.06,19.33-1.87,2.81-4.11,9.82-5.6,11.46-1.03,1.14-1.57.63-2.4-.4,4.2-15.54,20.43-29.88,35.99-33.32Z"/><path class="cls-2" d="M117.84,86.23c-.16-.23-.96-1.76-1.07-1.87,1.54-.38,1.71-.22,2.93-1.2,5.83-4.68,27.46-31.11,32.52-38.12.8-1.11,2.23-2.89,2.13-4.27-.01-.18-.92-.63-.8-1.07.06-.22,2.69-2.14,2.13-3.87,1.2,1.24,1.65,5.14.8,6.8-2.62,5.08-16.71,19.81-21.33,25.06-5.57,6.33-11.14,12.84-17.33,18.53Z"/><path class="cls-27" d="M85.84,33.45l-33.06,45.32c-4.38.29-1.19-2.39.27-4.27,8.83-11.37,16.64-22.27,24.79-34.12.43-.62.89-1.22,1.33-1.87,1.97-2.91,4.37-5.24,5.47-8.8.2,0,1.15,3.37,1.2,3.73Z"/><path class="cls-2" d="M85.84,33.45c.06.52.39.91.27,1.47l-31.72,43.59c-.52.4-1.02.23-1.6.27l33.06-45.32Z"/><path class="cls-41" d="M77.05,40.38l-3.87,5.33-12.13-5.6c5.31.47,10.67.27,16,.27Z"/><path class="cls-24" d="M115.97,83.83c-.09-.07-.42-.19-.53-.27l37.06-43.99-36.52,44.25Z"/><path class="cls-27" d="M102.91,80.63c-.18-.02-1.75.47-2.4,0-.79-.4-.79-1.38-1.07-2.13l.93.53c.23-3.55,3.31-.91,2.53,1.6Z"/><path class="cls-27" d="M97.84,72.37c-4.99-15.99-9.34-32.2-14.13-48.25,1.45-.87,3.27,1.52,3.73,2.53,3.77,14.21,8.38,28.14,12,42.39.45,1.77,2.73,3.28-1.6,3.33Z"/><path class="cls-27" d="M117.3,64.64c10.51-8.34,20.13-18.99,30.13-27.99.08.04,1.18-.66.8,1.2-.32,1.57-13.44,14.34-15.6,16.4s-14.84,13.91-16.26,14.4c-3.4,1.15,1.44-2.62.93-4Z"/><path class="cls-44" d="M86.11,19.32c-.33.14-1,.78-1.07.8-.2.05-.87.05-1.07,0-.25-.48-.13-1.14-.27-1.6,1.26-.19,1-.99,1.87-1.6.24.77.57,1.57.53,2.4Z"/><path class="cls-42" d="M87.18,19.05c-.21.46-.46.02-1.07.27.03-.83-.29-1.63-.53-2.4-.21-.66-1.63-5.05-2-5.07-2.86,1.84-.63,4.04.13,6.66.13.46.02,1.12.27,1.6-.21-.05-.54.13-.53-.27-1.03-1.82-1.17-5.76-2.8-6.93-1.53-1.1-3.95-1.02-4.8-1.33-1.22-.45-2.08-1.88-2.67-2.13-2.07-.89-4.78.23-5.47-3.6-1.67-9.37,9.15-4.78,13.73-4.4,2.98.25,15.64-.88,16.93,1.47.36.66.26,1.48,0,2.13-.9,2.23-4.93,1.27-7.06,1.73-.88.19-7.14,2.37-7.33,2.8.5,3.32,1.9,6.57,3.2,9.46Z"/><path class="cls-13" d="M70.11,2.79c4.55,2.67,9.67,3.15,13.86-.53.41.01.86-.01,1.33,0,1.9,1.73,5.36,2.51,6.93,0,1.6.07,5.01-.51,5.6,1.47.9,3.01-4.6,1.82-5.73,2-6.15.99-12.56,7.14-19.46,2.67-.14-.09-.72-1.32-.8-1.33-1.2-.22.08,2.15-1.6,1.33-1.84-.9-2.52-4.49-1.73-6.27l.4-.4c.42.77.6.71,1.2,1.07Z"/><path class="cls-16" d="M83.98,2.26c-4.19,3.69-9.32,3.2-13.86.53l-.4-1.33c4.76.52,9.48.66,14.26.8Z"/><path class="cls-31" d="M85.58,16.92c-.86.61-.6,1.41-1.87,1.6-.76-2.63-2.99-4.83-.13-6.66.37.01,1.79,4.41,2,5.07Z"/><path class="cls-6" d="M92.24,2.26c-1.57,2.51-5.04,1.73-6.93,0,2.3.07,4.63-.1,6.93,0Z"/><path class="cls-32" d="M80.91,10.52c2.17-.59,1.35,1.4,0,1.07l-.67-.67c.21-.03.56-.37.67-.4Z"/><path class="cls-8" d="M75.05,10.25c.59.32,2.03-.04,2.27.67-.49.29-2.19.1-2.27-.67Z"/><path class="cls-21" d="M208.21,51.84c-.45.66.91,1.32,1.6,2.13,1.31,1.54,3.21,3.92,3.47,5.87-12.35-11.93-30.09-13.8-45.05-5.6-.27-.94-.59-1.63-.8-2.67,12.75-7.16,28.01-6.29,40.79.27Z"/><path class="cls-41" d="M179.15,54.77c1.82,4.71,4.75,12.15,6.13,16.8.28.95,1.82,8.28,1.6,8.66-.11.2-1.07.1-1.33.67-1.65-.29-2.88-1.88-3.73-3.2-3.07-4.77-6.46-14.4-7.73-19.99-1.09-4.79-.37-3.33,4.13-5.07.26.19.75,1.65.93,2.13Z"/><path class="cls-41" d="M178.89,82.5c.68.66,2.74,1.52,2.4,2.67-.29.14-.18.14-.27.27-4.66.06-9.33.47-14,.27-2.6-.11-14.36-1.17-16.13-2.13,0-.83.4-.14.8-1.07s.64-2.7.8-3.73c8.81,1.64,17.85.82,26.39,3.73Z"/><path class="cls-41" d="M171.15,73.7c2.45,1.92,4.65,5.64,6.93,8-2.21-.72-6.15-.93-8.13-1.6-1.56-.52-14.29-7.33-14.53-8.13-.19-.66.88-1.96.8-2.13-1.61.7.99-3.1,2-3.07.73.02,11.9,6.13,12.93,6.93Z"/><path class="cls-21" d="M163.16,57.71c-2.51,2.49-5.21,4.89-7.2,7.86-2.34,3.51-6.49,12.73-6.93,16.8-.18,1.67.34,10.98,1.07,12.13-1.57-2.87-2.66-6.37-3.2-9.6-.2-1.18-.53-.75-.53-.8-1.23-9.1,8.18-24.08,15.73-29.06.41.91.69,1.75,1.07,2.67Z"/><path class="cls-41" d="M166.89,66.24c1.34,1.68,2.78,4.47,4,6.4l-12.53-6.53c.74-1.93,2.16-3.6,4.13-4.4,1.13,1.56,3.29,3.14,4.4,4.53Z"/><path class="cls-41" d="M173.82,57.97c1.27,3.71,1.96,7.68,3.47,11.33l-5.87-6.53c-.89-1.91-1.72-3.87-2.4-5.87l3.33-2.4c.39-.03,1.29,2.94,1.47,3.47Z"/><path class="cls-42" d="M163.69,58.51c-.97.61-1.85,1.61-2.67,2.4-.69.66-1.56,1.12-1.87,2.13-2.04,1.95-3.51,4.46-4.8,6.93-1.89,3.62-4.12,9-4.53,13.06-.03.35.02.72,0,1.07-.25,4.05.23,6.8,1.07,10.66-.2.08-.75-.19-.8-.27-.72-1.15-1.25-10.46-1.07-12.13.45-4.07,4.59-13.29,6.93-16.8,1.98-2.97,4.69-5.37,7.2-7.86.02.05.41.51.53.8Z"/><path class="cls-28" d="M181.82,77.7c-.56.15-.58-.29-.8-.53-1.72-4.72-4.92-8.83-8.53-12.26-.38-.73-.71-1.38-1.07-2.13l5.87,6.53c-1.51-3.65-2.2-7.62-3.47-11.33l.27-.27c1.27,5.59,4.66,15.23,7.73,19.99Z"/><path class="cls-31" d="M189.28,83.3c1.93,1.21,1.98,2.82,1.07,4.8-2.74,2.12-2.38.28-2.93,0,2.72-1.45,2.11-2.59.53-4.53.04-.13.5-.53.53-.53.09,0,.18.01.27,0,.03,0,.01.12.53.27Z"/><path class="cls-19" d="M187.42,79.03c.01,1.8-.04,1.7-1.87,2.13,0-.06-.02-.22,0-.27.27-.56,1.22-.47,1.33-.67.22-.38-1.32-7.72-1.6-8.66l.27-.53c.31,2.15,1.86,6.22,1.87,8Z"/><path class="cls-24" d="M155.69,19.85c.05,0,.53.52,1.07.27,3.35,8.02,5.61,16.57,8.66,24.79,8.97-4.87,21.38-7.04,31.46-5.07,2.1.41,6.39,1.49,3.2,4-2.49,1.96-12.16.25-16,.53-2.98.22-14.9,3.13-16.8,5.07-.82.84-.04,1.27.13,2.13.21,1.04.53,1.73.8,2.67.08.29.18.53.27.8.14.46.26.5.27.53.03.08-.03.19,0,.27.13.4.18.82.27,1.07.68,2,1.51,3.95,2.4,5.87.35.75.69,1.4,1.07,2.13,2.31,4.47,5.12,8.57,8.53,12.26.22.24.24.68.8.53.85,1.32,2.09,2.91,3.73,3.2-.02.05,0,.21,0,.27.08.66,1.94,1.83,2.4,2.4,1.58,1.94,2.19,3.08-.53,4.53-.23-.12-1.41-.22-1.47-.27-1.21-.88.07-.94-2.8-2.13-.03-.01-.07-.42-.53-.53-.54-.14-.68-.32-1.33,0,.34-1.15-1.72-2-2.4-2.67-.25-.25-.55-.54-.8-.8-2.28-2.36-4.48-6.08-6.93-8,.45-.55-.03-.69-.27-1.07-1.21-1.93-2.66-4.72-4-6.4.06-.63-.59-1.17-.8-1.6-.71-1.44-1.53-3.06-2.13-4.53-.12-.29-.15-1.32-.27-1.6s-.51-.75-.53-.8c-.38-.91-.66-1.75-1.07-2.67-.17-.37-.11-1.69-.67-1.87-9.62,6.6-14.69,16-17.73,27.06-.53,1.93-.95,11.22-4.67,10.53-1.76-.33-.66-8.58-.4-10.26,1.36-8.77,6.42-18.45,12.26-25.06,1.36-1.54,8.67-7.42,8.8-8s-1.81-4.17-1.73-5.2l-27.59,31.86-11.46,12.26c.16.29,0,.77,0,.93-.49-.2-.78-.65-1.07-1.07,6.19-5.69,11.76-12.2,17.33-18.53,4.62-5.25,18.71-19.98,21.33-25.06.85-1.66.4-5.56-.8-6.8-.16-.16-.13-.56-.53-.13-.7.97-1.8,2.28-2.67,3.07-9,8.16-31.41,30.69-41.19,34.39-2.18.82-4.6,1.4-6.93,1.6l-.4.67,1.6,5.2s.22.38-.8.27l-1.2-6.4c6.11-.86,11.65-3.48,16.53-7.2l35.32-32.66c-.11-1.09-8.89-1.28-10.13-1.47-18.41-2.8-36.81-5.62-55.32-7.73-.24-.1-.09-.51-.13-.53l64.65,8.8c1.26-.3-4.08-11.06-2.8-13.06.31-.49,3.31-.89,4-.8Z"/><path class="cls-27" d="M184.48,83.57c-.29.43-.5,1.34-1.2,1.33-1.87-.02-9.46-8.95-10.8-10.8-7.55-10.38-16.73-36.04-19.73-48.79-.2-.83-.66-2.05-.27-2.8.5.38,1.25-.24,1.73,0,2.29,1.12,9.07,25.4,10.53,29.46,4.46,12.36,9.26,23.11,19.73,31.59Z"/><path class="cls-2" d="M184.48,83.57c-10.47-8.48-15.27-19.23-19.73-31.59-1.46-4.06-8.24-28.34-10.53-29.46-.48-.24-1.24.38-1.73,0,.72-1.39,3.6-.92,4.8-.13,7.09,18.01,9.42,38.97,22.13,54.12.85,1.02,5.76,5.21,5.87,5.6.29,1.05-.54,1.08-.8,1.47Z"/><path class="cls-2" d="M139.16,82.23c3.32-4.77,4.68-10.75,7.46-15.86,3.38-6.21,8.3-11.88,14.13-15.86.09.37.56,1.64.53,1.73-.11.47-6.08,5.16-7.2,6.4-4.32,4.76-8.39,11.94-10.13,18.13-1.28,4.54-.71,9.86-4.27,13.33-.21.23-.58.2-.8,0-.77-.71.11-6.64.27-7.86Z"/><path class="cls-27" d="M160.76,50.51c-5.83,3.98-10.75,9.65-14.13,15.86-2.79,5.11-4.14,11.09-7.46,15.86,1.78-13.8,9.5-26.04,20.79-33.99.16.76.61,1.53.8,2.27Z"/><path class="cls-27" d="M198.61,43.58c-10.62-3.96-22.77-1.4-32.52,3.73-.95-2.51.7-2.63,3.07-3.73,8.67-4.05,22.42-5.31,31.33-1.73.05.34-1.5,1.53-1.87,1.73Z"/><path class="cls-2" d="M198.61,43.58c-3.02,1.64-3.78.3-6.53.27-7.07-.09-12.43.21-19.19,2.4-.98.32-5.29,2.66-5.6,2.67-1.14.03-.91-.83-1.2-1.6,9.75-5.13,21.91-7.69,32.52-3.73Z"/><path class="cls-41" d="M181.02,77.17c-3.41-3.7-6.22-7.79-8.53-12.26,3.61,3.43,6.82,7.54,8.53,12.26Z"/><path class="cls-2" d="M186.35,83.57c3.62,2.07,3.2,3.99-1.07,1.87l1.07-1.87Z"/><path class="cls-2" d="M154.49,20.12c.84-.02,1.58.55,2.27.93l-4.13.4c-.23-.78,1.48-1.32,1.87-1.33Z"/><path class="cls-2" d="M186.35,83.57l-1.07,1.87c-.3-.15-1.03.24-1.33-.4l2-2.27c.64-.12.33.76.4.8Z"/><path class="cls-12" d="M146.89,84.9c.54,3.23,1.63,6.73,3.2,9.6.05.08.6.34.8.27.24,1.08.48,1.89.8,2.93.14.45.26.5.27.53,12.47,37.15,69.32,31.17,72.51-6.66.01-.17-.01-.36,0-.53l.53.93c1.47-12.33-3.09-23.77-11.73-32.12-.26-1.94-2.16-4.33-3.47-5.87.89-.39,2.43,1.09,3.07,1.6,46.13,37.44-17.35,101.15-55.85,58.52-6.56-7.26-11.8-19.46-10.13-29.19Z"/><path class="cls-31" d="M155.16,18.25c-.81.12-1.73.75-2.67.53-.57-1.55-.94-2.27-1.33-4,3.77.46-.61-5.07,1.87-5.6,1.11,2.67.93,6.34,2.13,9.06Z"/><path class="cls-31" d="M149.29,5.45l-.53,4.53c-1.65-.94-3.88-1.58-4.53-3.6.24-.63,4.37-1.07,5.07-.93Z"/><path class="cls-31" d="M151.96,7.59c.46.6.74.81,1.07,1.6-2.48.53,1.91,6.06-1.87,5.6-.26-1.14-1.1-2.82-1.07-4,.03-.89.74-3.15,1.87-3.2Z"/><path class="cls-25" d="M151.96,7.59c-1.12.05-1.84,2.3-1.87,3.2-.5-.13-.93-.57-1.33-.8l.53-4.53c.86.17,2.11,1.42,2.67,2.13Z"/><path class="cls-19" d="M154.09,8.92c-.29,0-.36-.43-.53-.13,0,.22,0,.45,0,.67,0,1.92,1.64,6.45,2.13,8.53-.03,0,.12.17-.53.27-1.21-2.72-1.02-6.39-2.13-9.06-.33-.79-.6-1-1.07-1.6-.55-.71-1.81-1.96-2.67-2.13-.69-.14-4.82.3-5.07.93.66,2.02,2.88,2.66,4.53,3.6.41.23.83.67,1.33.8-.04,1.18.8,2.85,1.07,4,.4,1.72.77,2.45,1.33,4,.11.3-.4.21-.53.4.46.66,3.1-.17,3.87-.67l-.13,1.33c-.69-.09-3.69.31-4,.8-2.52-1.62-.21-1.47-.13-1.6.19-.34-1.53-7.26-1.73-7.6-.31-.52-3.85-2.2-4.67-2.8s-1.52-2.28-1.87-2.4c-2.29-.81-6.18,1.66-5.73-3.6.39-.96,5.8-1.47,7.06-1.47.29,0,5.32.48,5.6.53,1.72.32,4.35,2.75,5.87,2.93,1.62.2,7.07-2.69,7.86.4.91,3.52-3.1,2.68-4.67,3.07-2.85.7-1.7.84-5.2.8Z"/><path class="cls-22" d="M156.76,20.12c-.53.25-1.01-.26-1.07-.27l.13-1.33c-.77.49-3.41,1.32-3.87.67.13-.19.64-.1.53-.4.94.21,1.86-.41,2.67-.53.65-.1.5-.27.53-.27.16,0,1.01.18,1.07.4-.13.86-.38.83,0,1.73Z"/><path class="cls-31" d="M154.09,8.92l-.53.53c0-.22,0-.44,0-.67.17-.3.24.13.53.13Z"/><path class="cls-31" d="M147.83,2.26c3.14-.97,5.99,2.77,8.53,2.93.79.05,3.3-.86,3.47-.8,1.97.7-1.23,5.28-5.33,4.27-1.04-.26-2.92-2.79-3.73-3.2-2.05-1.03-4.54.48-2.93-3.2Z"/><path class="cls-40" d="M160.62,4.12c2.46-1.46,5.05,4.41-.67,3.33,1.31-.5.51-3.24.67-3.33Z"/><path class="cls-28" d="M145.69,2.26c1.84,2.96-3.82,3.02-5.2,1.47.04-.89,4.7-.26,5.2-1.47Z"/><path class="cls-41" d="M150.36,83.57c.42.37.37.58,1.2.8,4.91,1.28,14.13,1.81,19.33,1.87l10,1.33-4.67,2.67c-3.39.41-6.74,1.23-10.13,1.6-.09,0-.18,0-.27,0-4.75.48-9.45.83-14.26.27l-1.47-6.4c-.04-.47.23-1.36-.27-1.6.02-.35-.03-.72,0-1.07.28.04.24.27.53.53Z"/><path class="cls-41" d="M193.55,88.37c.08-.09.04-.11.27-.27,4.47-3.05,23.54-1.28,29.46-1.87.81.36.35,5.59-.27,5.87-6.15-.18-13.7,1-19.73.27-1.94-.24-6.88-2.09-8.8-2.93-.4-.18-1.04-.5-.93-1.07Z"/><path class="cls-41" d="M199.15,52.91c.1.02,1.71.71,1.87.8.37.21.78.44,1.2.53-1.92,5.31-4.08,11.25-6.53,16.53-1,2.15-2.55,3.49-3.47,5.47-.6,1.29-.36,3.83-1.6,4.67-.37-.49-2.25-.62-2.4-1.2-.39-1.49,2.48-10.19,2.13-12.53,1.7-1.88,5.4-13.53,6.66-14.4.47-.32,1.56.01,2.13.13Z"/><path class="cls-41" d="M193.55,84.37c-.04-.19-.17-.36-.27-.53,6.26-8.09,15.02-11.74,24.13-15.73.77.03,3.71,4.84,2.67,5.6-8.91,3.37-17.04,9-26.53,10.66Z"/><path class="cls-41" d="M192.22,81.97c-.26-.42-.55-.03-.53-1.2.1-5.96,6.68-10.92,10.66-14.8,2.42-2.35,4.82-4.68,7.06-7.2l3.87,3.6c-6.74,6.79-12.34,15.16-21.06,19.59Z"/><path class="cls-41" d="M153.03,98.76c.59-.73,3.43-2.21,4.4-2.67,1.83-.86,7.42-3.2,9.2-3.73,2.44-.73,7.28-1.56,9.86-1.87.48-.06,3.29-.36,3.47-.13-2.58,1.29-4.54,3.99-6.8,5.47-1.78,1.17-16.56,8.3-17.6,8-.73-.22-2.01-4.3-2.53-5.07Z"/><path class="cls-41" d="M192.22,91.3c.31-.54.54-.71.8-1.07,2.84,3,6.84,5.62,10.13,8.93,1.29,1.29,10.45,11.97,10.4,12.8-.02.29-2.54,2.71-3.33,2.53s-10.23-9.96-11.06-11.06c-2.5-3.32-3.33-7.66-5.6-10.93-.21-.3.51-.45-1.33-1.2Z"/><path class="cls-41" d="M185.82,51.04c.09-.01.18,0,.27,0,.87-.08,4.28-.2,4.53.67-.75,8.45-.09,18.19-2.4,26.39-.11.39-.51.61-.8.93-.01-1.78-1.56-5.85-1.87-8-.92-6.49-1.17-13.04-1.33-19.59.42-.64,1.04-.32,1.6-.4Z"/><path class="cls-41" d="M203.15,54.77c.4.26,1.14.41,1.33.53.64.42,4.33,2.69,4.27,3.33-2.16,2.4-4.38,4.79-6.66,7.06-2.06,2.06-4.27,4-6.27,6.13l.13-1.07,7.2-16Z"/><path class="cls-41" d="M192.22,51.31s-.11.43.13.53c.74.32,2.41-.03,2.53,0,.1.03,1.88.75,1.87.93l-6,12.4c.3-2.75-.59-11.35.13-13.46.24-.7.94-.02,1.33-.4Z"/><path class="cls-13" d="M150.89,83.57c1.77.96,13.53,2.02,16.13,2.13,4.67.2,9.34-.2,14-.27,0,.01.16-.17,0,.27-2.45.22-5.01.48-7.46.53-.88.02-1.78,0-2.67,0-5.2-.05-14.42-.58-19.33-1.87-.83-.22-.78-.43-1.2-.8.17.02.45-.04.53,0Z"/><path class="cls-3" d="M202.35,65.97c-3.98,3.88-10.56,8.84-10.66,14.8-.02,1.17.27.78.53,1.2.1.16-.2.68.53.53-.03.07.02.17,0,.27-.06.32.21.62.27,1.07-.23-.35-2.34-2.55-2.67-2.67-.04-.31.21-.23.27-.27,1.24-.83,1-3.38,1.6-4.67.92-1.98,2.47-3.31,3.47-5.47h.27l-.13,1.07c1.99-2.13,4.2-4.07,6.27-6.13l.27.27Z"/><path class="cls-32" d="M166.62,92.36c-1.78.54-7.36,2.87-9.2,3.73-.97.45-3.81,1.94-4.4,2.67l-.13.8c-.58-.81.34-1.97-.93-1.33,0-.03-.13-.08-.27-.53.31.05.25-.27.27-.27.43,0,.59.75.53-.8.13.25.44.4.27.93,3.62-1.49,9.02-2.98,12.26-5.2.19-.13.96.31.8-.53.09,0,.18,0,.27,0l.53.53Z"/><path class="cls-19" d="M176.22,90.23l.27.27c-2.58.3-7.42,1.13-9.86,1.87l-.53-.53c3.39-.37,6.74-1.19,10.13-1.6Z"/><path class="cls-14" d="M192.22,51.31c-.39.38-1.09-.3-1.33.4-.73,2.11.16,10.71-.13,13.46l6-12.4c.01-.18-1.76-.91-1.87-.93l-2.27-.8c2.15.23,4.72.59,6.53,1.87-.57-.12-1.67-.45-2.13-.13-1.27.86-4.97,12.51-6.66,14.4.35,2.34-2.52,11.04-2.13,12.53.15.58,2.03.71,2.4,1.2-.05.04-.31-.04-.27.27-.55-.2-.8-.11-1.33.13.32.24,1.42.85,1.6,1.07,1.21,1.44,2.33,4.18,1.87,5.6-.06.18-1.93,1.36-.8,2.27-.82,1.02-.83,2.22-2.67,2.27l1.6.67,5.87,6.53c-1.15-2.98-2.49-5.89-4.8-8.13.02-.03.52-.24.53-.27,1.84.75,1.13.9,1.33,1.2,2.27,3.27,3.09,7.61,5.6,10.93.83,1.1,10.3,10.9,11.06,11.06s3.32-2.24,3.33-2.53c.05-.82-9.11-11.5-10.4-12.8-3.29-3.31-7.29-5.93-10.13-8.93.04-.06-.04-.21,0-.27,1.91,1.43,3.57,2.91,6.13,1.73l-5.87-2.27c.09-.12-.2-.53.27-1.07-.1.56.53.89.93,1.07,1.91.84,6.86,2.7,8.8,2.93,6.02.73,13.58-.44,19.73-.27.62-.27,1.07-5.51.27-5.87-5.92.58-24.99-1.18-29.46,1.87l-.53-.53c.1-.34-.57-.23-.53-.4.02-.09.48-.02.53-1.47,0-.07.42-.63.27-1.33,9.48-1.66,17.61-7.3,26.53-10.66,1.04-.76-1.9-5.56-2.67-5.6-9.11,3.99-17.86,7.64-24.13,15.73-.02-.04-.24.04-.27,0-.06-.45-.33-.75-.27-1.07.94.7,1.44-.66,1.87-1.2-.39-.37-1.83.84-1.87.93-.73.15-.43-.38-.53-.53,8.72-4.43,14.32-12.8,21.06-19.59l-3.87-3.6c-2.25,2.52-4.65,4.85-7.06,7.2l-.27-.27c2.28-2.28,4.51-4.66,6.66-7.06.06-.64-3.62-2.91-4.27-3.33,7.45,3.04,14.55,11.73,17.33,19.33,1.92,5.25,2.53,10.18,2.13,15.73-.03.45-.23,1.33.53,1.2-3.2,37.83-60.04,43.81-72.51,6.66,1.27-.64.35.52.93,1.33l.13-.8c.52.77,1.8,4.85,2.53,5.07,1.04.31,15.82-6.83,17.6-8,2.25-1.48,4.22-4.17,6.8-5.47-.17-.23-2.98.08-3.47.13l-.27-.27,4.67-2.67-10-1.33c.88,0,1.78.02,2.67,0l7.6.8c.47-.4-.16-1.25-.13-1.33.16-.44,0-.26,0-.27.08-.13-.02-.12.27-.27.65-.32.8-.14,1.33,0-1.16.43-.58,5.22,1.07,4,.53.88,1.38,1.91,2.13.67l-2.67-2.27c-.25-.9-.53-.88-.53-.93s.84-.19.53-.93c2.86,1.19,1.59,1.25,2.8,2.13.06.04,1.23.15,1.47.27.55.28.2,2.12,2.93,0-1,2.16-2.17,1.73-4.27,2,4.56,1.95,7.66-5.53,3.2-6.8-.52-.15-.5-.27-.53-.27.6-.55-1.01-.73-1.33-.4l1.07.4s-.5.41-.53.53c-.46-.57-2.32-1.74-2.4-2.4,1.83-.43,1.88-.33,1.87-2.13.29-.33.69-.54.8-.93,2.3-8.21,1.65-17.94,2.4-26.39-.25-.87-3.66-.75-4.53-.67.49-.88,3.35-.63,4.13-.53.21.03.05.49.27.53.08.02,1.05-.57,1.6-.27.24.13.1.52.13.53Z"/><path class="cls-17" d="M182.62,85.17c.46.12.5.52.53.53.3.75-.54.88-.53.93s.28.03.53.93c.08.29.45,1.45.53,1.6-1.65,1.23-2.22-3.57-1.07-4Z"/><path class="cls-41" d="M181.95,89.97c1.58.2-.22,5.62-.67,6.8-1.66,4.4-10.32,12.15-14.26,15.33-.38.31-2.5,2.12-2.67,2.13-.36.02-4.44-3.99-4.4-4.4,3.51-2.59,18.59-20.29,21.99-19.86Z"/><path class="cls-41" d="M187.95,93.43c-.88,4.18-2.39,8.33-4,12.26-1.26,3.08-2.94,6.68-4.53,9.6-1.04,1.91-1.98,3.88-3.33,5.6-1.71-.91-4.34-1.23-5.47-2.8-.06-1.02,8.51-16.7,9.6-18.13.42-.55,6.12-6.32,6.53-6.53.5-.26.95,0,1.2,0Z"/><path class="cls-41" d="M189.95,93.96c8.97,6.03,10.43,15.55,15.06,24.39l-5.73,2.8c-1.08-.21-8.12-18-8.66-20.13-.2-.77-1.39-6.94-.67-7.06Z"/><path class="cls-41" d="M189.02,96.63c.22.24,1.8,5.73,1.87,6.27.26,2.05.64,17.11.27,18.4-.59,2.02-6.15,1.6-6.4,1.07.98-5.61-.44-12.25.27-17.73.33-2.56,2.3-5.48,2.67-8.13l.4-.4c.15.46.9.49.93.53Z"/><path class="cls-41" d="M220.61,79.3c.69,0,1.8-.23,2.27.4.2.28,1.15,5.71.4,6.27l-14.4-.27-15.06,1.47c.1-.57-.2-1.87.13-2.27s8.68-2.98,9.6-3.2c3.54-.85,13.62-2.42,17.06-2.4Z"/><path class="cls-41" d="M196.61,92.36c2.05.11,4.68-.19,6.66.27.97.23,16.29,6.42,17.06,6.93,1.51.99-1.55,5.55-1.87,5.6-.45.07-7.5-3-8.53-3.47-4.98-2.25-9.81-5.07-13.33-9.33Z"/><path class="cls-41" d="M204.88,92.63h18.13c.49.35-1.26,6.82-1.87,6.93l-16.26-6.93Z"/><path class="cls-41" d="M179.69,115.56c1.64-3.29,3.08-6.49,4.53-9.86,0-.02.11.09.27-.27v16.66c-.5,1.14-6.64-.61-7.73-1.07.98-1.83,2.01-3.61,2.93-5.47Z"/><path class="cls-41" d="M191.42,122.49l.13-17.6,7.06,16.13c-2.12,1.11-4.81,1.41-7.2,1.47Z"/><polygon class="cls-41" points="177.95 102.76 169.95 118.22 165.02 114.89 177.95 102.76"/><path class="cls-41" d="M203.81,98.76l14.53,6.8c.13.37-3.31,5.23-3.87,5.47-1.17.5-9.38-10.94-10.66-12.26Z"/><path class="cls-41" d="M171.29,97.16c-3.21,4.72-7.76,8.26-11.73,12.26-.44.03-3.88-4.55-3.47-5.07l15.2-7.2Z"/><polygon class="cls-41" points="213.68 62.77 217.54 67.44 203.81 73.97 213.68 62.77"/><path class="cls-41" d="M220.34,73.97c1.16.03,1.92,3.79,2.13,4.8l-16.4,2c2.78-.87,12.03-6.85,14.26-6.8Z"/><path class="cls-41" d="M200.08,105.16l10,10c-.53.47-4.1,3.08-4.4,3.07-1.14-.05-5.22-11.37-5.6-13.06Z"/><path class="cls-41" d="M190.62,93.16c.32-.47.78-1.13,1.07-1.6,2.31,2.24,3.65,5.16,4.8,8.13l-5.87-6.53Z"/><path class="cls-41" d="M183.28,91.56c.15-.06,2.8,1.57,2.8,1.73l-4.67,4.93c.03-.85,1.54-6.54,1.87-6.66Z"/><path class="cls-8" d="M190.35,81.17c.32.12,2.44,2.31,2.67,2.67.08.63,0,1.26.27,1.87-.05,1.45-.52,1.38-.53,1.47-.03.17.63.06.53.4-.52,1.86-.63,1.45-1.6,2.67-1.13-.91.74-2.09.8-2.27.47-1.42-.66-4.16-1.87-5.6-.18-.21-1.28-.83-1.6-1.07.54-.25.78-.33,1.33-.13Z"/><path class="cls-32" d="M189.02,96.36v.27s-.78-.07-.93-.53l-.4.4c-.37,2.66-2.34,5.57-2.67,8.13-.31.11-.42.54-.53.8-.15.36-.26.25-.27.27h-.27c1.61-3.94,3.12-8.08,4-12.26.08,0,.18-.01.27,0-.15,1.18.1,2,.8,2.93Z"/><path class="cls-41" d="M193.02,89.97c.07-.09.19-.43.27-.53l5.87,2.27c-2.56,1.17-4.22-.3-6.13-1.73Z"/><path class="cls-41" d="M181.02,85.7c-.03.08.6.93.13,1.33l-7.6-.8c2.46-.05,5.01-.31,7.46-.53Z"/><path class="cls-36" d="M190.35,88.1c.92-1.98.87-3.59-1.07-4.8,4.46,1.27,1.36,8.75-3.2,6.8,2.1-.27,3.27.16,4.27-2Z"/><path class="cls-3" d="M179.69,115.56l-.27-.27c1.59-2.92,3.27-6.52,4.53-9.6h.27c-1.45,3.38-2.89,6.58-4.53,9.86Z"/><path class="cls-1" d="M193.82,88.1c-.23.16-.19.17-.27.27-.47.54-.18.94-.27,1.07-.07.1-.2.44-.27.53-.04.06.04.21,0,.27-.26.35-.49.53-.8,1.07-.01.03-.52.24-.53.27-.29.47-.74,1.13-1.07,1.6l-1.6-.67c1.84-.04,1.85-1.24,2.67-2.27.97-1.22,1.08-.81,1.6-2.67l.53.53Z"/><path class="cls-5" d="M183.68,89.17c-.09-.15-.45-1.31-.53-1.6l2.67,2.27c-.75,1.24-1.61.22-2.13-.67Z"/><path class="cls-41" d="M189.02,96.36c-.7-.94-.95-1.75-.8-2.93.23.04.56-.66,1.07.13l-.27,2.8Z"/><path class="cls-41" d="M181.15,88.37c1.84.51-2.57,2.02-3.33,1.47.5-.25,3.16-1.51,3.33-1.47Z"/><path class="cls-41" d="M192.75,82.77c.02-.09-.03-.2,0-.27.04-.1,1.47-1.31,1.87-.93-.42.54-.93,1.9-1.87,1.2Z"/><path class="cls-41" d="M188.62,91.03c.29-.09,1.2.06,1.2.4,0,.88-2.41,0-1.2-.4Z"/><path class="cls-19" d="M193.55,84.37c.15.7-.26,1.27-.27,1.33-.27-.61-.19-1.24-.27-1.87.03.04.24-.04.27,0,.09.17.23.34.27.53Z"/><path class="cls-3" d="M188.75,83.03c-.09.01-.18,0-.27,0l-1.07-.4c.32-.33,1.93-.15,1.33.4Z"/><path class="cls-35" d="M191.02,89.17c.39.12-.1.94-.53.8-.29-.09.48-.81.53-.8Z"/><path class="cls-1" d="M191.42,122.49s-.22.7-.53.4l.13-.67.4.27Z"/><path class="cls-32" d="M185.82,51.04c-.56.08-1.18-.24-1.6.4.16,6.56.41,13.1,1.33,19.59l-.27.53c-1.38-4.64-4.32-12.08-6.13-16.8l.27-.27c1.15,4.87,3.4,9.49,5.2,14.13-.64-4.96-.21-10.11-.67-15.06-.05-.49-.18-2.4-1.07-2.27.06-.02.07-.52.93-.8.16-.05.1.56.27.53.1-.02,1.32-1.48,1.73,0Z"/><path class="cls-41" d="M182.88,51.31c.89-.13,1.02,1.77,1.07,2.27.46,4.95.03,10.11.67,15.06-1.8-4.64-4.05-9.26-5.2-14.13-.88-3.75.06-1.36,2.53-2.4.32-.14.16-.51.93-.8Z"/><path class="cls-14" d="M203.15,54.77l-7.2,16h-.27c2.45-5.28,4.61-11.22,6.53-16.53-.42-.1-.83-.32-1.2-.53.96-.93,1.98.96,2.13,1.07Z"/><path class="cls-25" d="M224.47,91.03c-.01.17.01.36,0,.53-.76.13-.57-.75-.53-1.2.39-5.55-.21-10.48-2.13-15.73-2.78-7.59-9.88-16.29-17.33-19.33-.19-.12-.93-.27-1.33-.53-.16-.1-1.17-1.99-2.13-1.07-.15-.09-1.77-.78-1.87-.8-1.81-1.27-4.38-1.64-6.53-1.87l2.27.8c-.13-.03-1.79.32-2.53,0-.24-.1-.1-.52-.13-.53-.03,0,.11-.4-.13-.53-.55-.3-1.52.28-1.6.27-.22-.04-.05-.51-.27-.53-.79-.09-3.64-.34-4.13.53-.09,0-.18-.01-.27,0-.42-1.48-1.63-.02-1.73,0-.17.03-.1-.59-.27-.53-.86.28-.88.78-.93.8-.77.29-.61.66-.93.8-2.47,1.04-3.42-1.35-2.53,2.4l-.27.27c-.18-.48-.68-1.95-.93-2.13-4.5,1.74-5.22.28-4.13,5.07l-.27.27c-.18-.53-1.08-3.5-1.47-3.47l-3.33,2.4c-.08-.25-.14-.67-.27-1.07,1.07-.43,2.74-.61,3.2-1.73l-3.2,1.47s-.13-.07-.27-.53c26.91-15.1,58.05,5.45,55.99,35.99Z"/><path class="cls-42" d="M213.28,59.84c8.64,8.35,13.2,19.8,11.73,32.12l-.53-.93c2.06-30.54-29.07-51.09-55.99-35.99-.08-.27-.18-.51-.27-.8,14.96-8.2,32.71-6.33,45.05,5.6Z"/><path class="cls-11" d="M168.76,55.84c-.03-.08.03-.19,0-.27l3.2-1.47c-.46,1.13-2.13,1.3-3.2,1.73Z"/><path class="cls-21" d="M175.29,52.64c1.26.19-2.29,1.7-2.8,1.47-.15-.3,2.64-1.49,2.8-1.47Z"/><path class="cls-25" d="M150.36,83.57c-.3-.27-.25-.49-.53-.53.41-4.07,2.64-9.44,4.53-13.06l-4,13.6Z"/><path class="cls-14" d="M163.69,58.51c.12.28.15,1.31.27,1.6l-1.33.93,3.47,3.6c.21.43.86.97.8,1.6-1.11-1.4-3.27-2.97-4.4-4.53-1.97.8-3.39,2.47-4.13,4.4l12.53,6.53c.24.38.71.52.27,1.07-1.03-.81-12.2-6.91-12.93-6.93-1.01-.03-3.61,3.77-2,3.07.08.18-.99,1.47-.8,2.13.24.8,12.97,7.61,14.53,8.13,1.98.67,5.92.87,8.13,1.6.25.25.54.55.8.8-8.54-2.92-17.58-2.09-26.39-3.73-.66-1.03-2.32,4.75-.8,3.73-.4.93-.8.23-.8,1.07-.08-.04-.37.02-.53,0l4-13.6c1.29-2.47,2.76-4.98,4.8-6.93.11-.11,3-1.68,1.87-2.13.82-.79,1.69-1.79,2.67-2.4Z"/><path class="cls-41" d="M166.09,64.64l-3.47-3.6,1.33-.93c.6,1.47,1.42,3.09,2.13,4.53Z"/><path class="cls-38" d="M152.49,78.77c-.16,1.03-.41,2.83-.8,3.73-1.52,1.02.14-4.76.8-3.73Z"/><path class="cls-41" d="M155.29,72.64l12.13,7.06c-2.63-.58-11.88-.16-13.73-1.2-.98-.55,1.09-5.75,1.6-5.87Z"/><path class="cls-38" d="M159.16,63.04c.3-1.01,1.18-1.47,1.87-2.13,1.13.45-1.76,2.03-1.87,2.13Z"/><path class="cls-25" d="M150.09,85.7c.37,4.01.63,7.85,1.87,11.73-.02,0,.04.32-.27.27-.32-1.04-.56-1.85-.8-2.93-.84-3.87-1.31-6.61-1.07-10.66.5.24.22,1.13.27,1.6Z"/><path class="cls-36" d="M165.82,91.83c.16.84-.61.41-.8.53h-13.2c-.86.29.33,3.64.67,4.27.06,1.55-.1.79-.53.8-1.23-3.88-1.49-7.72-1.87-11.73l1.47,6.4c4.81.57,9.52.22,14.26-.27Z"/><path class="cls-41" d="M165.02,92.36c-3.24,2.22-8.64,3.71-12.26,5.2.18-.54-.13-.68-.27-.93-.33-.63-1.53-3.98-.67-4.27h13.2Z"/><path class="cls-27" d="M88.51,63.57l5.33,16.8c-.88-.07-1.79.06-2.67,0v-.27c1.13.27.87-1.18.8-1.73-.16-1.38-1.38-5.45-1.87-6.93-2.69-8.15-8.23-14.87-14.66-20.39,1.74-2.53,1.9-1.4,4.13.53,3.9,3.38,6.38,7.63,8.93,12Z"/><path class="cls-2" d="M38.39,43.58c.09.25.18.54.27.8-12.43,2.31-23.82,11.43-30.13,22.26-1.37,2.35-3.35,9.59-6,9.46-1.8-.09-1.54-.88-1.2-2.13.83,1.03,1.37,1.54,2.4.4,1.49-1.65,3.73-8.65,5.6-11.46,6.04-9.11,18.23-17.59,29.06-19.33Z"/><path class="cls-24" d="M61.05,40.11l12.13,5.6,3.87-5.33h.8c-8.16,11.85-15.97,22.76-24.79,34.12-.07-.33.12-.54.27-.8,2.28-3.95,6.6-7.52,8.53-11.73.78-.27.95-1.08,1.33-1.6.98-1.34,1.97-2.64,2.93-4,.25-.36.55-.69.8-1.07.18-.27.35-.52.53-.8.46-.71.9-1.41,1.33-2.13.02-.03.31-.14.53-.53.29-.51.65-1.04,1.07-1.47-.08-.74-9.4-4.99-10.93-4.93.11-.62.26-.5.27-.53,2.05-.57,10.21,4.86,10.8,4.8.37-.04.73-1.1.93-1.33.58-.64,1.17-1.24,1.6-2-.14-.78-11.1-5.57-12.8-5.47.16-.38.27-.93.8-.8Z"/><path class="cls-2" d="M95.44,80.37c-.53-.02-1.07.04-1.6,0l-5.33-16.8s.52-.1.8.4c2.85,5.07,4.63,10.8,6.13,16.4Z"/><path class="cls-2" d="M91.18,80.1c-1.8-7.63-4.84-14.84-9.86-20.93-1.13-1.37-6.86-6.19-6.93-6.66s.86-1.16,1.07-1.47c6.43,5.52,11.97,12.24,14.66,20.39.49,1.48,1.7,5.56,1.87,6.93.07.56.33,2.01-.8,1.73Z"/><path class="cls-21" d="M39.19,47.04c.14.64,1.31,2.24.67,2.93-19.79,4.37-34.11,24.24-29.73,44.52-.05.06.11.74-.27.4-1.24-2.92-2.37-5.78-2.93-8.93-.19-1.04-.53-1.5-.53-1.6-.3-5.15,2.91-13.59,5.6-18,5.73-9.39,16.48-16.94,27.19-19.33Z"/><path class="cls-12" d="M6.93,85.97c.56,3.16,1.69,6.01,2.93,8.93.38.34.22-.34.27-.4.02-.02.42-.24.53-.27.21,1.11.52,1.9.8,2.93.14.5.39.89.53,1.33.46,1.39.72,2.13,1.33,3.47,1.23,2.67,2.79,5.44,4.8,7.86.8.96,1.9,1.67,2.53,2.8.96-.97-1.21-1.12-.93-2.4l3.2,3.2c-.47-.14-1.11-.39-1.6-.4,18.75,18.56,50.86,11.45,60.78-12.66.63.17,3.22.17,3.47.93-16.61,40.4-74.07,32.65-79.18-11.46-.08-.72-.35-3.47.53-3.87Z"/><path class="cls-41" d="M41.59,90.23c.25.45.46.93.8,1.33l-2.4,7.86c-2.39,1.29-14.53,14.67-15.6,14.8-.31.04-.97-.65-1.47-.8l-3.2-3.2c.34-1.57,16.92-15.96,18.8-18.93l3.07-1.07Z"/><path class="cls-41" d="M41.59,82.77c-.16.35-.41,1.18-.53,1.6-9.42-1.51-17.64-7.53-25.59-12.53.37-.91.23-1.53.27-1.6.84-1.86,1.31-2.04,2.4-3.47,8.43,4.42,17.12,8.67,23.46,16Z"/><path class="cls-41" d="M50.39,93.96c2.13,3.38,5.81,5.66,7.73,9.2,2.45,4.5,3.38,10.8,6.4,15.2l-5.47,2.8c-1.43-.24-10.86-23.63-10-26.93.48-.67,1.28-.23,1.33-.27Z"/><path class="cls-41" d="M47.19,94.23c.38,3.56-8.74,26.5-10.8,26.93-.32.07-4.03-1.8-4.8-1.87-.5-.32-.21-.69-.13-1.2.15-.99,7.68-16.7,8.53-18.13.26-.44,5.23-5.81,5.6-6,1.2-.61,1.02.1,1.6.27Z"/><path class="cls-41" d="M40.79,86.23c-.05.69-.27.76-.27.8l-28.93-2.4c-.78-1.17-.17-2.74.13-4,.14-.58.25-1.38.53-1.87.82.47.96-.28,1.47-.27,4.1.13,18.03,3.2,21.86,4.8,1.83.76,3.36,2.19,5.2,2.93Z"/><path class="cls-41" d="M42.66,81.43c-.26.38-.77.75-.8.8-2.43-2.58-5.32-4.72-7.73-7.33-1.3-1.41-10.79-12.48-10.93-13.33-.04-.24.41-1.52.53-1.73,1.91-1.26,3.14-2.72,4.8-1.2,2.24,2.05,11.76,14.92,12.8,17.6.64,1.65.92,3.49,1.33,5.2Z"/><path class="cls-41" d="M48.79,94.5c-.66,2.13,1.36,7.54,2.13,9.73-1.09,4.42,1.14,13.13,0,17.06-.43,1.49-4.39,1.94-5.47,1.47s.14-16.05-.67-18.26c.89-3.37,2.87-6.73,2.67-10.26.4.15.9.29,1.33.27Z"/><path class="cls-41" d="M40.26,52.38c1.58,4.63,5.21,20.74,5.07,25.19-.08,2.28-1.07,1.61-2.13,3.07-2.92-7.39-5.77-14.52-7.46-22.39-.14-.63-1.14-3.93-1.07-4.13.1-.28,4.84-1.75,5.6-1.73Z"/><path class="cls-41" d="M56.78,93.43c2.03,1.07,15.55,15.93,16.26,18,.29.84-1.98,3.07-2.53,3.07-.86,0-11.51-10.62-12.4-11.86-1.91-2.67-2.99-6.78-4.53-9.73.95.03,2.36.09,3.2.53Z"/><path class="cls-41" d="M40.79,87.57c.04.37.18.7.27,1.07-3.19,1.29-6.85.74-10.26,1.6-6.16,2.43-13.04,1.64-19.59,1.33-.1-.94-.28-2.31-.27-3.2,0-.18-.01-.36,0-.53.03-.43-.13-1.94.13-2.13l29.73,1.87Z"/><path class="cls-41" d="M79.98,71.57c.08.6.26,1.04.4,1.6l-12.4,5.87c-3.21-.13-6.76-.51-9.86-.53,1.25-2.24,18.23-10.85,19.33-10.66.61.1,1.84,3.26,2.53,3.73Z"/><path class="cls-41" d="M80.78,100.1l-2.53,4.8c-7.41-2.96-15.69-5.36-20.93-11.73,6.57-.33,16.61,5,23.46,6.93Z"/><path class="cls-41" d="M61.85,61.97c-1.93,4.21-6.25,7.78-8.53,11.73l4.8-21.33,6.13,2.53c-1.13,2.19-1.39,4.86-2.4,7.06Z"/><path class="cls-41" d="M56.78,78.77c-.52,0-1.08.04-1.6,0,4.52-6.83,9.73-13.2,14.66-19.73l3.47,3.07-16.53,16.66Z"/><path class="cls-41" d="M90.11,80.37c-.77-.09-1.49.29-2.13-.4-.7-.75-.61-4.84-1.87-5.73-1.11-4.73-3.71-9.25-6.66-13.2-.4-.53-1.08-1.63-1.87-1.47-1.08-1.66-3.39-3.35-4.8-4.8.32-.39.74-1.67,1.47-1.6,8.17,6.79,14.81,16.51,15.86,27.19Z"/><path class="cls-12" d="M86.11,74.24c.44,1.87.72,3.84,1.07,5.73-3.82,1.42-3.23-3.26-4.27-5.87s-2.32-5.03-3.73-7.33c.59-2.31-.37-5.3-1.6-7.2.79-.16,1.47.93,1.87,1.47,2.96,3.94,5.56,8.47,6.66,13.2Z"/><path class="cls-27" d="M71.45,48.38c-1.62-.39-3.96-3.07-5.2-3.47-1.37-.44-4.85-.21-6.53-1.33.18-.7.37-2.28.53-2.67,1.7-.11,12.66,4.69,12.8,5.47-.43.76-1.02,1.36-1.6,2Z"/><path class="cls-21" d="M77.58,59.57c1.23,1.9,2.19,4.89,1.6,7.2-2.23-3.63-5.04-6.58-8-9.6.55-.71.96-1.62,1.6-2.4,1.4,1.45,3.72,3.14,4.8,4.8Z"/><path class="cls-21" d="M61.58,48.38l7.2,4c-.43.73-.87,1.43-1.33,2.13l-8.66-3.73-.4-.67c.5-.85.39-1.88.53-2.8.83.51,1.75.79,2.67,1.07Z"/><path class="cls-32" d="M23.73,59.84c-.12.21-.57,1.5-.53,1.73.14.85,9.63,11.92,10.93,13.33,2.41,2.61,5.3,4.75,7.73,7.33-.06.11-.21.4-.27.53-6.34-7.32-15.03-11.58-23.46-16,.56-.73.2-.83.4-1.07.02-.02.3.39.4.27l14.13,8.4-10.53-12.66c-.21.23-.37.41-.67.53-.44.18-1.54.81-1.87,1.07.89-1.73,2.25-2.49,3.73-3.47Z"/><path class="cls-32" d="M28.79,56.91c-.15.31-.54.62-.53.67,0,.05.35.44.53.8.39.8,8.51,11.56,9.2,11.86.14.06.57.04.67-.13-1.63-3.7-2.11-7.75-3.2-11.6l.27-.27c1.69,7.87,4.54,15,7.46,22.39-.18.25-.36.54-.53.8-.41-1.71-.69-3.55-1.33-5.2-1.04-2.68-10.56-15.55-12.8-17.6-1.66-1.52-2.89-.06-4.8,1.2.68-1.16,5.45-4.29,6.93-4.67-.97.74-1.28.49-1.87,1.73Z"/><path class="cls-32" d="M41.06,84.37c-.02.08.02.18,0,.27l-2.13.13,1.87.67c-.04.26.02.54,0,.8-1.84-.75-3.37-2.17-5.2-2.93-3.83-1.59-17.76-4.66-21.86-4.8-.5-.02-.65.73-1.47.27.24-.41.49-.87,1.07-.8l16,2.8-13.86-8.13c.07-.2-.31-.03,0-.8,7.96,5,16.17,11.02,25.59,12.53Z"/><path class="cls-41" d="M69.31,51.84c-2.33-1.82-4.98-2.63-7.73-3.47-.92-.28-1.83-.56-2.67-1.07.07-.48.44-1.37.53-1.87,1.53-.06,10.85,4.19,10.93,4.93-.42.43-.77.95-1.07,1.47Z"/><path class="cls-2" d="M71.45,48.38c-.21.23-.56,1.3-.93,1.33-.59.06-8.75-5.37-10.8-4.8.09-.38-.1-.97,0-1.33,1.68,1.12,5.16.9,6.53,1.33,1.24.4,3.58,3.07,5.2,3.47Z"/><path class="cls-44" d="M66.92,55.31c-.25.37-.55.71-.8,1.07.12-.73-1.14-1.3-1.6-.93l-1.33,4.93c-.38.52-.56,1.33-1.33,1.6,1.01-2.2,1.27-4.88,2.4-7.06l-6.13-2.53.13-1.07c3.04.95,6.04,2.14,8.66,4Z"/><path class="cls-17" d="M81.31,79.83c-2.74-.05-5.61-.69-8.26-.8,1.55-.6,7.67-1.46,8.93-1.07.52.16.61,1.99-.67,1.87Z"/><path class="cls-41" d="M41.06,84.63c-.08.33-.24.63-.27.8l-1.87-.67,2.13-.13Z"/><path class="cls-14" d="M42.92,92.36l-1.47,5.33,3.6-4.27c.24.11.51.22.53.53-.37.18-5.34,5.56-5.6,6-.85,1.42-8.38,17.13-8.53,18.13-.08.51-.37.88.13,1.2.77.07,4.48,1.93,4.8,1.87,2.05-.43,11.18-23.37,10.8-26.93.08.02.19-.03.27,0,.2,3.53-1.78,6.9-2.67,10.26.81,2.21-.36,17.81.67,18.26s5.03.02,5.47-1.47c1.14-3.93-1.09-12.65,0-17.06-.77-2.19-2.8-7.6-2.13-9.73.11-.37.26-.25.27-.27-.86,3.29,8.57,26.69,10,26.93l5.47-2.8c-3.02-4.4-3.95-10.69-6.4-15.2-1.92-3.53-5.6-5.82-7.73-9.2.02,0-.09-.11.27-.27l5.2,5.87-3.33-6.66c.34-.03.72-.01,1.07,0,1.54,2.95,2.62,7.06,4.53,9.73.88,1.24,11.54,11.86,12.4,11.86.55,0,2.82-2.22,2.53-3.07-.71-2.06-14.24-16.93-16.26-18,0-.37.28-.25.53-.27,5.24,6.37,13.52,8.77,20.93,11.73l2.53-4.8c.35.1.81.12,1.33.27-9.93,24.12-42.03,31.22-60.78,12.66.49.01,1.13.26,1.6.4.5.15,1.15.84,1.47.8,1.07-.13,13.21-13.51,15.6-14.8l2.4-7.86c.24.29.41.69.53.8Z"/><path class="cls-41" d="M52.52,92.9l3.33,6.66-5.2-5.87c1.14-.51.24-.68,1.87-.8Z"/><path class="cls-41" d="M45.05,93.43l-3.6,4.27,1.47-5.33c.26.25,1.7.87,2.13,1.07Z"/><path class="cls-41" d="M39.06,100.9l-8.13,17.46c-.87.55-5.42-2.88-6.13-3.73l14.26-13.73Z"/><polygon class="cls-41" points="44.65 105.43 44.79 122.62 37.46 121.42 44.65 105.43"/><path class="cls-41" d="M51.32,105.69l6.66,15.73c-.89.03-6.55,1.8-6.8.93l.13-16.66Z"/><path class="cls-41" d="M63.58,99.03l14.53,6.53c-.81.93-3.21,5.47-4.4,5.47l-10.13-12Z"/><path class="cls-41" d="M59.32,104.89l10.13,10.66c-.76.18-3.6,2.65-4,2.67-1.65.07-5.23-11.54-6.13-13.33Z"/><path class="cls-41" d="M12.26,96.9c-.34-.49-.65-2.97-.8-3.73l13.33-.93c-2.75.64-8.86,5.11-11.06,5.47-.57.09-1.27-.51-1.47-.8Z"/><path class="cls-32" d="M41.06,88.63c.04.15-.04.4,0,.53l-1.33.67,1.33-.4s.4.55.53.8l-3.07,1.07c-1.87,2.96-18.46,17.36-18.8,18.93-.28,1.28,1.89,1.42.93,2.4-.63-1.13-1.73-1.84-2.53-2.8-2.01-2.42-3.57-5.2-4.8-7.86.35-.96-.37-2.95-1.33-3.47-.14-.44-.4-.84-.53-1.33.31.05.25-.27.27-.27.27-.02.46.54.53,0,.2.29.9.89,1.47.8,2.21-.35,8.31-4.83,11.06-5.47l-13.33.93c-.12-.58-.2-.99-.27-1.6,6.55.31,13.44,1.1,19.59-1.33,3.42-.85,7.07-.31,10.26-1.6Z"/><path class="cls-41" d="M41.06,89.17c.03.08-.03.19,0,.27l-1.33.4,1.33-.67Z"/><path class="cls-4" d="M13.33,101.96c-.62-1.34-.88-2.07-1.33-3.47.96.52,1.68,2.5,1.33,3.47Z"/><path class="cls-41" d="M37.19,89.7c.56.02,1.48-.17,1.47.67-.04,2.47-16.54,11.08-19.33,12.13-.54.2-3.28,1.35-3.47,1.33-.97-.09-3.17-4.82-2.4-5.6,2.72-2.75,19.67-8.64,23.73-8.53Z"/><path class="cls-41" d="M19.19,109.43c-.75-1.15-2.04-2.26-2.67-3.47-.26-.49-.45-1.03-.8-1.47l17.86-8.8-14.4,13.73Z"/><path class="cls-30" d="M19.19,109.43l-.27.4c-.55-1.22-2.44-2.38-2.4-3.87.63,1.2,1.92,2.32,2.67,3.47Z"/><path class="cls-41" d="M35.46,58.51c1.09,3.84,1.57,7.9,3.2,11.6-.1.18-.53.2-.67.13-.69-.3-8.8-11.07-9.2-11.86-.18-.36-.53-.75-.53-.8,0-.04.39-.36.53-.67l5.2-2.67c.38.08,1.29,3.63,1.47,4.27Z"/><path class="cls-41" d="M13.33,77.97c-.1-1.89,1.66-4.01,2.13-5.33l13.86,8.13-16-2.8Z"/><path class="cls-25" d="M40.26,52.38c-.75-.01-5.5,1.46-5.6,1.73-.07.2.93,3.5,1.07,4.13l-.27.27c-.18-.63-1.08-4.19-1.47-4.27l-5.2,2.67c.58-1.24.9-1,1.87-1.73-1.48.38-6.26,3.51-6.93,4.67-1.48.98-2.84,1.74-3.73,3.47-2.41,1.91-3.56,5.17-5.33,7.6l1.07-.67c-.03.07.1.69-.27,1.6-.31.77.07.6,0,.8-.47,1.32-2.23,3.44-2.13,5.33-.58-.07-.82.39-1.07.8-.29.48-.39,1.28-.53,1.87-.54-.66-.78,1.09-.8,1.2-.22,1.55-.97,4.84,0,6-.01.18,0,.36,0,.53-.61.43-.35,2.99-.27,3.6.22,1.64.94,3.26,1.07,4.93-.02,0,.04.32-.27.27-.28-1.03-.59-1.82-.8-2.93-3.72-19.81,9.8-39.55,29.33-43.32-.14.63.1.97.27,1.47Z"/><path class="cls-21" d="M21.86,62.24c-.93,1.25-1.91,2.56-2.93,3.73-.1.12-.38-.28-.4-.27-.2.24.16.34-.4,1.07-1.09,1.43-1.56,1.61-2.4,3.47l-1.07.67c1.77-2.43,2.92-5.69,5.33-7.6.33-.26,1.43-.88,1.87-1.07Z"/><path class="cls-30" d="M10.93,88.37c-.01.89.17,2.26.27,3.2.07.61.15,1.02.27,1.6.15.77.46,3.24.8,3.73-.07.54-.27-.02-.53,0-.13-1.67-.84-3.29-1.07-4.93-.08-.61-.34-3.16.27-3.6Z"/><path class="cls-11" d="M36.92,52.11c.45.06.61.18.27.53l-1.2-.13c.33,0,.88-.41.93-.4Z"/><path class="cls-41" d="M66.12,56.37c-.96,1.36-1.95,2.66-2.93,4l1.33-4.93c.46-.36,1.72.2,1.6.93Z"/><path class="cls-42" d="M61.58,48.38c2.75.84,5.4,1.65,7.73,3.47-.23.4-.51.5-.53.53l-7.2-4Z"/><path class="cls-32" d="M79.18,69.17c.51,1.09.63,1.15.8,2.4-.69-.47-1.92-3.63-2.53-3.73-1.1-.18-18.08,8.42-19.33,10.66-.18,0-.7.27-1.33.27l16.53-16.66-3.47-3.07c.19-.25.32-.52.53-.8,3.08,3.3,6.84,6.77,8.8,10.93Z"/><path class="cls-15" d="M79.45,68.9l-.27.27c-1.95-4.16-5.71-7.63-8.8-10.93.16-.21.26-.25.27-.27,3.72,3.03,6.5,6.74,8.8,10.93Z"/><polygon class="cls-41" points="73.71 62.51 77.31 67.17 62.25 74.77 73.71 62.51"/><path class="cls-41" d="M18.93,65.97c1.02-1.17,2-2.48,2.93-3.73.3-.12.46-.31.67-.53l10.53,12.66-14.13-8.4Z"/><path class="cls-44" d="M81.31,79.83c1.28.12,1.19-1.7.67-1.87-1.26-.4-7.38.47-8.93,1.07-1.68-.07-3.39.07-5.07,0l12.4-5.87c-.14-.56-.32-1-.4-1.6-.17-1.25-.29-1.31-.8-2.4l.27-.27c1.94,3.54,3.44,6.78,4.27,10.8-.12.41-1.92.14-2.4.13Z"/><path class="cls-41" d="M80.38,73.7c.9.14,1.3,2.85,1.6,3.73l-11.33.93,9.73-4.67Z"/><path class="cls-14" d="M11.73,80.63c-.3,1.26-.92,2.83-.13,4l28.93,2.4c0,.24.24.27.27.53l-29.73-1.87c-.27.19-.11,1.7-.13,2.13-.97-1.16-.22-4.45,0-6,.02-.11.26-1.86.8-1.2Z"/><path class="cls-41" d="M11.06,84.9h.27c.53-.04.53.31,0,.27l-.27-.27Z"/><path class="cls-42" d="M78.65,37.98l.53.53c-.44.65-.9,1.24-1.33,1.87h-.8c-5.32,0-10.69.2-16-.27-.53-.13-.64.42-.8.8s-.35,1.97-.53,2.67c-.1.36.09.96,0,1.33,0,.03-.15-.09-.27.53-.09.49-.46,1.39-.53,1.87-.14.92-.04,1.95-.53,2.8l.4.67,8.66,3.73c-.18.28-.35.53-.53.8-2.62-1.86-5.62-3.05-8.66-4l-.13,1.07-4.8,21.33c-.15.26-.33.47-.27.8-1.46,1.88-4.65,4.55-.27,4.27.58-.04,1.07.13,1.6-.27.32.18.41.23.8.27.52.04,1.08,0,1.6,0,.64,0,1.15-.27,1.33-.27,3.1.02,6.66.4,9.86.53,1.68.07,3.39-.07,5.07,0,2.65.11,5.52.75,8.26.8.48,0,2.28.28,2.4-.13-.83-4.02-2.33-7.26-4.27-10.8-2.3-4.19-5.08-7.9-8.8-10.93.11-.15.27-.45.53-.8,2.96,3.02,5.77,5.97,8,9.6,1.41,2.3,2.74,4.82,3.73,7.33s.44,7.28,4.27,5.87c-.34-1.89-.63-3.86-1.07-5.73,1.26.89,1.17,4.98,1.87,5.73.64.69,1.36.31,2.13.4.35.04.72-.02,1.07,0,.88.06,1.79-.07,2.67,0,.53.04,1.07-.02,1.6,0,.04,0,.1.22.8.27.88.05,1.79-.05,2.67,0,.13,0,1.43.49,1.6,0,.65.47,2.22-.02,2.4,0,.6.07,1.23.2,1.87.27,1.02.11.76-.27.8-.27,3.14.41,7.23,1.19,9.86,2.93.11.07.45.2.53.27.19.15.65.38.8.53.11.1.9,1.63,1.07,1.87.29.41.57.87,1.07,1.07,0,.35.7,5.71.8,6,.29.82,7.21,6.69,8.13,7.06.21.09,3.53.16,4.27.53.93.47,1.75,2.7,1.47,3.6-.43,1.37-8.7,2.49-10,2-.68-.26-2.58-2.88-2.53-3.33.09-.89,1.37-.63,1.33-1.07-.01-.18-2.62-2.24-2.8-2.27-1.05-.14-4.83,2.5-6.13,2.93-7.81,2.62-18.69-1.23-26.93-1.33-4.89,12.47-15.46,22.23-28.39,25.86-4.92.22-8.88,1.66-14.53,1.33-2.29-.13-4.84-1.24-7.06-1.33-9.06-2.65-17.4-8.15-22.93-15.86-5.22-7.29-9.06-18.21-7.2-27.06,0,.1.35.56.53,1.6-.88.39-.62,3.15-.53,3.87,5.11,44.11,62.57,51.86,79.18,11.46-.25-.77-2.83-.76-3.47-.93-.52-.14-.99-.17-1.33-.27-6.85-1.93-16.89-7.26-23.46-6.93-.26.01-.54-.1-.53.27-.83-.44-2.25-.5-3.2-.53-.35-.01-.72-.03-1.07,0-1.62.12-.73.29-1.87.8-.36.16-.25.26-.27.27-.06.04-.85-.4-1.33.27-.01.02-.15-.1-.27.27-.44.02-.94-.12-1.33-.27-.08-.03-.18.02-.27,0-.58-.16-.4-.87-1.6-.27-.02-.31-.29-.42-.53-.53-.43-.2-1.87-.82-2.13-1.07-.12-.11-.29-.51-.53-.8-.34-.4-.55-.88-.8-1.33-.13-.25-.52-.75-.53-.8-.03-.08.03-.19,0-.27-.04-.14.04-.38,0-.53-.09-.37-.22-.69-.27-1.07-.03-.26-.26-.29-.27-.53,0-.04.21-.11.27-.8.02-.26-.04-.54,0-.8.03-.17.18-.47.27-.8.02-.08-.02-.19,0-.27.12-.42.37-1.25.53-1.6.06-.13.2-.43.27-.53.03-.05.54-.42.8-.8.18-.26.35-.55.53-.8,1.06-1.46,2.06-.78,2.13-3.07.15-4.45-3.49-20.57-5.07-25.19-.17-.5-.4-.84-.27-1.47-19.53,3.77-33.05,23.51-29.33,43.32-.12.03-.51.24-.53.27-4.38-20.28,9.94-40.15,29.73-44.52.64-.69-.52-2.29-.67-2.93-.17-.78-.31-1.36-.53-2.13-.04-.14.04-.4,0-.53-.09-.26-.18-.55-.27-.8-.19-.52-.89-2.77-1.07-2.93-.4-.37-.35-.21-.8-.27,1.21-.45-.9-6.01-1.2-6.13-1.42-.59-9.34.72-10.26-.4-1.3-3.01,2.08-2.64,4.13-2.8,12.2-.96,25.77.52,38.12-.27,1.1.56,1.36,1.01,1.2,2.27-3.8,2.04-7.9-1.92-7.33,5.2l17.46-.27Z"/><path class="cls-41" d="M55.05,33.71c4.77-.05,5.72-.98,4,4.53l-20.53-.27-.8-3.73c5.76-.02,11.57-.47,17.33-.53Z"/><path class="cls-13" d="M58.52,31.31c1.78,0,11.44-.89,8.8,1.87l-33.46.4c2.49-.82,5.26-.86,7.86-1.2.25-.03.01-.76.27-.8,3.57-.6,12.38-.25,16.53-.27Z"/><path class="cls-41" d="M77.71,38.51c.44.02.92-.08.53.53-1.39.29-17.72,1.41-17.73.13,5.59-.27,11.62-.89,17.2-.67Z"/><path class="cls-16" d="M27.33,31.85l12.13.13c-3.36.59-8.27,1.01-11.6.4-.38-.07-.93.14-.53-.53Z"/><path class="cls-18" d="M60.92,33.71l-.8,4.53c-.2-1.41.09-3.32.8-4.53Z"/><path class="cls-32" d="M36.39,34.25c.45-.12,1.22,2.5.8,2.93-.26-.29-1.07-2.86-.8-2.93Z"/><path class="cls-37" d="M76.11,39.58c.24-.06,1.73-.04,1.73.13l-2.27.4c-.28-.14.5-.52.53-.53Z"/><path class="cls-26" d="M58.52,38.78c.66-.1.76.74.27.8-.21.03-1.04-.69-.27-.8Z"/><path class="cls-16" d="M39.86,38.51c4.9-.86,12.34.55,17.46.4-6.16.19-12.8.27-18.66,0,.39,0,1.05-.37,1.2-.4Z"/><path class="cls-41" d="M51.72,51.31c-.37,3.14-1.02,6.32-1.33,9.46-.38,3.86-.14,12.95-1.07,16-.26.87-1.85,1.48-2.13.8-.26-2.65-.8-5.21-1.07-7.86-.21-2.12-1.15-17.42-.8-18.26.48-1.13,5.23-.69,6.4-.13Z"/><path class="cls-41" d="M57.32,51.84c.19,1.22-3.64,11.51-4.27,14-.66,2.67-.71,6.83-1.33,9.06-.15.55-1.34,2.41-2,2l2.27-25.33c.63-1.28,4.21.28,5.33.27Z"/><path class="cls-21" d="M57.85,47.31c-.17.95-.4,1.85-.53,2.8-4.56-.94-9.26-1.01-14-.93-2.33.04-2.51,1.67-3.07-2.4,5.78-1.26,11.89-1.09,17.6.53Z"/><path class="cls-2" d="M58.92,40.91c.36,5.3-3.45,2.57-6.8,2.4-4.07-.21-8.3-.11-12.26.8-.69-.41-.25-1.12-.4-1.6,4.56-1.72,9.97.12,14.4-2l-.93-.4,6,.8Z"/><path class="cls-41" d="M57.85,47.31c-5.7-1.63-11.81-1.79-17.6-.53-.09-.67-.71-1.9.13-2.4,5.86-.78,11.84-.84,17.6.53.7.49,0,1.68-.13,2.4Z"/><path class="cls-27" d="M58.92,40.91l-6-.8.93.4c-4.43,2.12-9.84.28-14.4,2-.21-.7-.9-1.84-.13-2.4,1.19-.77,18.51-.75,19.46,0,.24.19.11.52.13.8Z"/><path class="cls-41" d="M45.32,68.1c-1.03-3.76-3.59-13.06-3.73-16.53l3.2-.13.53,16.66Z"/><path class="cls-14" d="M57.32,51.84c-1.12.01-4.7-1.55-5.33-.27.04-.3-.17-.22-.27-.27-1.17-.55-5.92-.99-6.4.13-.35.84.59,16.14.8,18.26-.63-.42-.64-1.01-.8-1.6l-.53-16.66-3.2.13c-.02-.6-.59-.83.13-1.33,1.62-.87,13.14-.31,14.93.53.78.37.56.36.67,1.07Z"/><path class="cls-41" d="M81.84,96.9l-.8,2.4c-3.95-.89-8.49-2.02-11.73-4.4,4.2.44,8.37,1.29,12.53,2Z"/><path class="cls-41" d="M55.85,57.97l-1.2,7.86-2.27,7.6c.34-5.27,1.91-10.46,3.47-15.46Z"/><path class="cls-12" d="M81.84,99.3c1.02.05.9-1.62,1.33-2.4,2.45.4,4.09.58,2.93,3.33-.65.63-3.65-.8-4.27-.93Z"/><path class="cls-41" d="M44.12,65.71c.68,4.16,2.68,8.22,2.4,12.53l-1.47-6-.93-6.53Z"/><path class="cls-7" d="M83.18,96.9c-.44.78-.32,2.45-1.33,2.4-.24-.05-.56.05-.8,0l.8-2.4c.42.07.92-.07,1.33,0Z"/><path class="cls-31" d="M51.99,81.43c11.4-.08,22.98.09,34.39.27,5.55.09,11.23.08,16.8.27,2.44.08,5.51-.21,7.86.27,5.53,1.11,9.79,7.66,7.6,13.06-2.76-.3-1.4-2.91-1.87-5.2-2.07-10.23-15.75-8.67-17.06.93-13.5-.46-27.16-.25-40.66-1.07-3.06-.19-6.06-.63-8.93-1.07,3.54-2,1.97-7.02-2.27-6.13-2.78.58-3.04,5.18-.4,6.13l-.53,1.07c-2.97-1.24-4.51-3.19-2.67-6.27s4.98-2.25,7.73-2.27Z"/><path class="cls-15" d="M50.12,88.9c2.87.44,5.88.88,8.93,1.07,13.49.82,27.15.61,40.66,1.07-.1.75-.11,3,0,3.73l-41.86-2.4c-2.38-.32-5.41-.11-7.73-.53v-.53c.58.09,1.14.27,1.73.27.6-.33-4.49-1.42-4.93-1.6l.53-1.07c1.44.52,1.64-.16,2.67,0Z"/><path class="cls-31" d="M115.17,89.43c-.11.51-1.06,1.25-1.07,1.33-2.03-2.49-6.95-2.66-8,.8-.57,1.89-.07,4.22,1.73,5.33,2.79,1.72,5.25-.72,7.86.93-.75.43-1.03.81-1.87,1.2-6.05,2.8-13.13-.02-12-7.6,1.05-7.04,11.49-8.69,13.33-2Z"/><path class="cls-31" d="M98.37,81.17c-4,.1-7.98.25-12,.27-11.36.05-22.83-.69-34.12-.53-2.7.04-6.08-.42-8,2-3.85,4.87,1.6,7.71,5.87,8.4v.53c-9.98-1.81-10.12-9.51-.93-12.26l49.19,1.6Z"/><path class="cls-41" d="M89.98,98.5c.7.01,2.52,1.06,2.67,1.07.29.02,2.53-.81,2.67-.8,1.48.1,6.29.51,7.46.8.1.02,1.35,1.27,1.6,1.33,2.65.68,4.7,1.38,7.46.53.84-.26,5.5-4.2,5.73-1.73.03.35-4.6,2.66-5.2,2.8-3.84.87-12.2.08-16.26-.53-.16-.02-.91-.99-1.33-1.07-1.21-.22-2.02.29-2.13.27-1.13-.23-3.04-1.16-4-1.33-.07-.01-1,.8-1.33.53-1.53-1.21,2.19-1.87,2.67-1.87Z"/><path class="cls-31" d="M99.71,94.76c.03.18.66,1.47.8,1.87l-29.06-2.4c-4.53-.67-9.06-1.26-13.6-1.87l41.86,2.4Z"/><path class="cls-20" d="M118.64,95.3c-.09.21-.24.32-.27.53-1.01-.55-2.7-1.42-3.73-1.87.03-.13.21-.47.27-.53.83-.93.68-2.5.27-4-1.84-6.69-12.28-5.04-13.33,2-1.13,7.58,5.95,10.4,12,7.6-.31.54-.8,1.02-1.33,1.33-4.58,1-10.56-.65-11.2-6-1.44-12.15,16.59-13.33,14.4-.53,1.93.03.26-5.34-.53-6.66-5.43-9.06-19.14.14-14.13,9.73h-.27s-.13.1-.27-.27c-.14-.39-.77-1.68-.8-1.87-.11-.74-.1-2.98,0-3.73,1.32-9.6,14.99-11.16,17.06-.93.46,2.29-.89,4.9,1.87,5.2Z"/><path class="cls-31" d="M112.5,100.36c-3.49,2.07-9.6.09-11.46-3.47-5.01-9.59,8.7-18.79,14.13-9.73.79,1.32,2.46,6.69.53,6.66,2.2-12.79-15.84-11.62-14.4.53.63,5.34,6.61,6.99,11.2,6Z"/><path class="cls-15" d="M100.51,96.63c.13.37.26.25.27.27.32.72.94,1.41.93,2.13-10.08-1.57-20.17-3.31-30.26-4.8l29.06,2.4Z"/><path class="cls-18" d="M108.77,92.36c-.07,2.17,4.46,1.94,6.27,2.67,3.74,1.51,7.7,4.77,11.33,6.66-4.3.89-4.6-1.58-7.86-3.47-.51-.3-4.28-2.13-4.53-2.13-.16,0-2.32,1.03-2.93,1.07-.65.04-1.13-.11-1.73-.27l3.2-.93c-1.72.26-6.4-2.75-4-3.87-.05.31.27.25.27.27Z"/><path class="cls-40" d="M108.5,92.1c-2.4,1.11,2.28,4.13,4,3.87l-3.2.93c-2.2-.57-3.38-2.95-2.93-5.07.77-3.67,8.23-2.94,7.73,1.2-.19.33-3.17-2.06-5.6-.93Z"/><path class="cls-9" d="M122.1,103.56c2.72-.5,8.49,1.77,9.6-1.87.58.24,1.43,1.91,1.33,2.27-.22.82-2.41.93-2.8,1.47-1.27-.71-5.17.84-6.4.53-.43-.11-1.64-1.84-1.73-2.4Z"/><path class="cls-41" d="M114.64,93.96c1.03.45,2.72,1.32,3.73,1.87,2.48,1.35,4.7,3.14,7.2,4.53.68.38,1.12.94,2.13.93-.37.62-.86.3-1.33.4-3.63-1.89-7.59-5.15-11.33-6.66-1.8-.73-6.33-.5-6.27-2.67,2.15-.32,3.96.77,5.87,1.6Z"/><path class="cls-41" d="M42.66,90.23c.58-.19.22-.68-.27-.53-1.39-3.28-1.28-4.39.53-7.2-3.96,5.9,2.55,9.77,7.73,10.26-.71,0-2.14.93-2.27.93-1.1.05-1.5-1.05-1.6-1.07-.37-.06-1.01.55-1.07.53-1.78-.62-2.21-1.33-3.07-2.93Z"/><path class="cls-34" d="M131.7,101.7c-1.1,3.64-6.88,1.36-9.6,1.87,0-.02-.42-.03-.27-.4.27-.43,9.22-1.74,9.86-1.47Z"/><path class="cls-43" d="M103.17,81.97c-5.56-.19-11.24-.18-16.8-.27v-.27c4.01-.02,8-.17,12-.27,1.02-.02,4.5-.49,4.8.8Z"/><path class="cls-19" d="M114.1,90.77c-.06.44.7,2.09.8,2.67-.05.06-.23.4-.27.53-1.9-.83-3.72-1.92-5.87-1.6,0-.02-.32.04-.27-.27,2.43-1.13,5.41,1.26,5.6.93.5-4.14-6.96-4.87-7.73-1.2l-.27-.27c1.05-3.46,5.97-3.29,8-.8Z"/><path class="cls-41" d="M119.57,94.5c.32-.24,4.3,3.52,2.93,3.47-1.13-1.27-4.06-1.37-2.93-3.47Z"/><path class="cls-41" d="M42.92,82.5c1.11-1.73,2.08-2.47,3.73-3.6,1,.37-3.54,3.31-3.73,3.6Z"/><path class="cls-23" d="M89.44,97.43l4.4,1.2c-1.25-.08-3.65-.2-4.4-1.2Z"/><path class="cls-17" d="M125.57,100.36c-.36-.15-1.54-1.51-2.13-1.73,1.2-.37,5.2,3.01,2.13,1.73Z"/><path class="cls-17" d="M116.37,97.96c.27.05,2.44.86,2.27,1.2-.39.26-2.41-.61-2.27-1.2Z"/><path class="cls-41" d="M88.11,97.43c.4-.07,1.52.81.53,1.07-.49.12-1.27-.94-.53-1.07Z"/><path class="cls-41" d="M128.63,100.63c1.23-.21.91.91,0,.8-.39-.05-.43-.72,0-.8Z"/><path class="cls-18" d="M93.18,101.43l1.47.4c-.67-.3-1.58.41-1.47-.4Z"/><path class="cls-18" d="M88.91,100.63l1.2.4c-.39.3-1.38.19-1.2-.4Z"/><path class="cls-39" d="M47.85,78.5c.19-.14.86.02.67.4-.21.41-1.24.02-.67-.4Z"/><polygon class="cls-10" points="67.58 94.23 67.85 94.5 67.85 94.76 67.58 94.76 67.58 94.23"/><path class="cls-29" d="M42.66,90.23c-.09-.17-.19-.35-.27-.53.49-.15.85.35.27.53Z"/><path class="cls-12" d="M86.38,81.43v.27c-11.41-.18-22.99-.35-34.39-.27l.27-.53c11.3-.15,22.77.58,34.12.53Z"/><path class="cls-34" d="M52.25,80.9l-.27.53c-2.75.02-5.93-.75-7.73,2.27s-.3,5.03,2.67,6.27c.44.18,5.53,1.27,4.93,1.6-.6,0-1.15-.17-1.73-.27-4.26-.68-9.71-3.53-5.87-8.4,1.91-2.42,5.3-1.96,8-2Z"/><path class="cls-14" d="M114.9,93.43c-.1-.57-.86-2.23-.8-2.67.01-.08.96-.82,1.07-1.33.41,1.5.57,3.07-.27,4Z"/><path class="cls-33" d="M50.12,88.9c-1.02-.16-1.22.52-2.67,0-2.64-.95-2.38-5.55.4-6.13,4.23-.89,5.8,4.13,2.27,6.13Z"/><path class="cls-2" d="M47.85,83.57c3.68-1.08,4.64,4.37,1.33,4.8-3.13.41-3.65-4.12-1.33-4.8Z"/><path class="cls-27" d="M48.39,84.9c1.81-.01-.19,2.36-.67.93-.16-.49.47-.93.67-.93Z"/></g></g></svg>